<svg width="375" height="76" viewBox="0 0 375 76" fill="none" xmlns="http://www.w3.org/2000/svg">
<rect width="375" height="76" fill="#0D0D0D" fill-opacity="0.2"/>
<path fill-rule="evenodd" clip-rule="evenodd" d="M12.1214 26.1928H36.6598L38.4671 24H10L12.1214 26.1928ZM14.7837 29.3383L20.4072 29.3602L20.5484 32.7939L22.47 30.4137C23.5269 29.1044 24.5885 27.7836 24.8295 27.4785L25.2671 26.9238H12.7027L14.7837 29.3383ZM25.8328 30.4407C24.1624 32.5265 24.2744 31.8014 24.2768 40.5049C24.278 44.8601 24.3582 48.5414 24.4552 48.6854C24.5523 48.8294 25.3075 49.4092 26.133 49.9735L27.6342 51V31.9773L34.2396 31.9771L36.3079 29.5409H26.5534L25.8328 30.4407ZM20.658 34.2051L20.7233 38.9055L20.7886 46.3971L22.1671 47.3578C22.9252 47.8863 23.6023 48.261 23.672 48.1906C23.7414 48.12 23.7697 41.9499 23.7347 37.8905L23.671 30.51L20.658 34.2051Z" fill="white"/>
<path d="M45.8015 32.2703H53.0054V33.7977H47.5497V37.0994H52.282V38.6269H47.5497V43.0703H45.8015V32.2703Z" fill="white"/>
<path d="M54.2165 33.736V32.8412L54.8344 32.224H55.7537L56.3716 32.8412V33.736L55.7537 34.3532H54.8344L54.2165 33.736ZM54.4425 35.3869H56.1455V43.0703H54.4425V35.3869Z" fill="white"/>
<path d="M58.2508 35.3869H59.8333V36.7909L61.2047 35.3869H63.5859L65.1683 37.0069V43.0703H63.4653V37.4852L62.8776 36.8834H61.5212L59.9538 38.5034V43.0703H58.2508V35.3869Z" fill="white"/>
<path d="M66.9766 33.736V32.8412L67.5945 32.224H68.5138L69.1317 32.8412V33.736L68.5138 34.3532H67.5945L66.9766 33.736ZM67.2027 35.3869H68.9057V43.0703H67.2027V35.3869Z" fill="white"/>
<path d="M71.6892 41.5429V36.868H70.3328V35.3869H71.7193V32.8874H73.3922V35.3869H75.698V36.868H73.3922V40.9874L73.9799 41.5892H75.698V43.0703H73.1812L71.6892 41.5429Z" fill="white"/>
<path d="M83.9171 35.3869V44.8909L82.3648 46.4646H78.5368L77.2106 45.1223V44.104H78.9136V44.6132L79.2753 44.9989H81.6264L82.2141 44.3817V41.7589L80.9482 43.0703H78.5218L76.9846 41.4812V35.3869H78.6876V40.972L79.2753 41.5737H80.6468L82.2141 39.9074V35.3869H83.9171Z" fill="white"/>
<path d="M92.3215 33.7977H89.1566V32.2703H97.2345V33.7977H94.0697V43.0703H92.3215V33.7977Z" fill="white"/>
<path d="M97.0134 41.5274V36.9297L98.5054 35.3869H102.665L104.172 36.9297V41.5274L102.665 43.0703H98.5054L97.0134 41.5274ZM101.866 41.6046L102.469 40.9874V37.4697L101.866 36.8526H99.3193L98.7164 37.4697V40.9874L99.3193 41.6046H101.866Z" fill="white"/>
<path d="M105.905 41.512V35.3869H107.608V40.972L108.195 41.5737H109.507L111.104 39.9383V35.3869H112.807V43.0703H111.225V41.6509L109.823 43.0703H107.427L105.905 41.512Z" fill="white"/>
<path d="M114.616 41.5429V36.9143L116.093 35.3869H120.056L121.548 36.9297V38.1949H119.845V37.4852L119.242 36.8834H116.921L116.319 37.4852V40.972L116.921 41.5737H119.242L119.845 40.972V40.2623H121.548V41.5274L120.056 43.0703H116.093L114.616 41.5429Z" fill="white"/>
<path d="M123.052 32.0543H124.755V36.7137L126.051 35.3869H128.418L130 37.0069V43.0703H128.297V37.4852L127.709 36.8834H126.323L124.755 38.5034V43.0703H123.052V32.0543Z" fill="white"/>
<path d="M330 29H360M330 37H360M330 45H360" stroke="white" stroke-width="2"/>
</svg>
