<svg width="375" height="375" viewBox="0 0 375 375" fill="none" xmlns="http://www.w3.org/2000/svg">
<g filter="url(#filter0_f_2_1179)">
<path fill-rule="evenodd" clip-rule="evenodd" d="M21.02 239.132C28.6448 239.999 -17.4291 279.022 -24.3867 274.66C-33.0685 269.216 -27.5194 231.333 -32.9701 220.589C-38.232 210.217 -21.7446 209.852 -19.2206 197.702C-16.9658 186.848 -14.9029 177.543 -9.81293 168.674C-4.49527 159.407 -2.3988 157.938 6.10764 156.194C14.6583 154.441 26.5673 118.791 34.6564 122.975C41.9117 126.727 240.306 92.7296 244.76 101.43C249.306 110.308 300.598 112.433 300.998 123.265C301.346 132.694 249.764 151.968 246.944 160.58C244.124 169.19 123.744 191.967 118.275 197.702C112.108 204.169 13.282 238.252 21.02 239.132Z" fill="url(#paint0_linear_2_1179)"/>
</g>
<defs>
<filter id="filter0_f_2_1179" x="-134" y="0" width="535" height="375" filterUnits="userSpaceOnUse" color-interpolation-filters="sRGB">
<feFlood flood-opacity="0" result="BackgroundImageFix"/>
<feBlend mode="normal" in="SourceGraphic" in2="BackgroundImageFix" result="shape"/>
<feGaussianBlur stdDeviation="50" result="effect1_foregroundBlur_2_1179"/>
</filter>
<linearGradient id="paint0_linear_2_1179" x1="208.248" y1="275" x2="145.086" y2="76.0849" gradientUnits="userSpaceOnUse">
<stop stop-color="#B2FF0F"/>
<stop offset="1" stop-color="#76FFEF"/>
</linearGradient>
</defs>
</svg>
