<svg aria-hidden="true" style="position: absolute; width: 0; height: 0; overflow: hidden;" version="1.1" xmlns="http://www.w3.org/2000/svg" xmlns:xlink="http://www.w3.org/1999/xlink">
    <defs>
        <symbol id="icon-discord" viewBox="0 0 32 32">
            <path d="M2.783 0.073c0.172-0.032 0.629-0.062 1.015-0.066l0.21-0.002c0.272-0.003 0.493 0.217 0.493 0.488 0 0.275-0.218 0.5-0.493 0.508l-0.311 0.010c-0.778 0.024-0.819 0.033-1.272 0.257-0.564 0.279-0.919 0.643-1.194 1.223-0.13 0.275-0.198 0.576-0.198 0.88v25.23c0 0.347 0.080 0.689 0.233 1 0.281 0.569 0.643 0.924 1.223 1.2 0.275 0.13 0.575 0.198 0.879 0.198h25.248c0.304 0 0.604-0.068 0.879-0.198 0.579-0.275 0.942-0.63 1.221-1.195 0.224-0.454 0.232-0.494 0.256-1.274l0.009-0.305c0.009-0.279 0.237-0.5 0.516-0.5 0.273 0 0.492 0.227 0.482 0.5l-0.014 0.36c-0.037 0.988-0.149 1.395-0.553 2.022-0.462 0.715-1.072 1.182-1.929 1.474-0.331 0.113-0.807 0.117-13.492 0.117s-13.16-0.004-13.492-0.117c-1.266-0.432-2.214-1.481-2.432-2.694-0.094-0.52-0.094-25.826 0-26.346 0.183-1.015 0.947-2.009 1.897-2.468 0.277-0.134 0.644-0.269 0.815-0.302zM5.5 0.5c0-0.276 0.224-0.5 0.5-0.5s0.5 0.225 0.5 0.5c0 0.276-0.224 0.5-0.5 0.5s-0.5-0.225-0.5-0.5zM7.499 0.5c0-0.276 0.224-0.5 0.5-0.5h10.147c7.588 0 10.742 0.020 10.978 0.070 1.385 0.292 2.248 1.372 2.691 3.371 0.131 0.591 0.132 0.665 0.152 11.84l0.019 10.744c0 0.277-0.224 0.501-0.5 0.501s-0.501-0.224-0.501-0.501l-0-10.337c-0-6.887-0.024-11.044-0.064-11.402-0.181-1.61-0.712-2.667-1.547-3.078-0.235-0.115-0.493-0.176-0.755-0.176l-20.621-0.031c-0.276-0-0.5-0.224-0.5-0.501zM12.871 5.549c0.189-0.011 0.675-0.026 1.080-0.032 0.706-0.011 0.743-0.005 0.89 0.142 0.182 0.182 0.201 0.463 0.044 0.654-0.072 0.088-0.31 0.187-0.703 0.291-0.326 0.087-0.861 0.266-1.189 0.397-0.655 0.263-1.306 0.595-1.060 0.539 1.747-0.391 2.594-0.498 3.935-0.495 1.154 0.002 2.123 0.105 3.494 0.371 0.427 0.083 0.786 0.142 0.797 0.131 0.029-0.029-0.881-0.448-1.386-0.638-0.24-0.090-0.69-0.231-0.999-0.314-0.367-0.098-0.6-0.196-0.672-0.283-0.157-0.191-0.138-0.472 0.044-0.654 0.14-0.14 0.202-0.154 0.703-0.153 2.353 0.003 5.724 0.528 6.803 1.061 0.616 0.304 1.169 0.86 1.483 1.491 0.468 0.941 1.37 4.961 1.82 8.114 0.235 1.644 0.411 3.235 0.364 3.284-0.030 0.031-0.909 0.115-0.945 0.090-0.010-0.007-0.059-0.403-0.109-0.881-0.289-2.788-0.784-5.568-1.498-8.423-0.384-1.535-0.439-1.689-0.75-2.114-0.48-0.655-1.15-0.929-3.045-1.247-1.078-0.181-1.181-0.159-0.678 0.14 0.544 0.324 1.268 0.877 1.773 1.352 0.355 0.334 0.423 0.432 0.423 0.603 0 0.291-0.18 0.49-0.443 0.489-0.117-0.001-0.62-0.144-1.118-0.319-1.617-0.568-3.333-0.932-5.106-1.081-1.863-0.157-4.405 0.242-6.605 1.038-1.212 0.438-1.258 0.449-1.455 0.339s-0.297-0.352-0.24-0.579c0.055-0.22 0.953-0.993 1.87-1.611 0.847-0.571 0.842-0.576-0.371-0.372-1.333 0.224-2.055 0.429-2.461 0.701-0.331 0.221-0.675 0.608-0.862 0.966-0.038 0.073-0.156 0.453-0.262 0.843s-0.199 0.716-0.207 0.724c-0.018 0.018-0.92-0.212-0.944-0.241-0.043-0.052 0.414-1.543 0.569-1.857 0.248-0.502 1.003-1.241 1.521-1.49 0.806-0.386 3.417-0.851 5.495-0.977zM4.913 11.353c0.060-0.257 0.112-0.467 0.114-0.466 0.556 0.142 0.926 0.244 0.941 0.26 0.036 0.036-0.193 0.933-0.239 0.937-0.131 0.011-0.861-0.158-0.891-0.207-0.019-0.032 0.014-0.268 0.075-0.525zM4.563 12.966c0-0.034 0.222-0.012 0.606 0.058 0.359 0.066 0.398 0.088 0.369 0.203-0.094 0.377-0.427 2.356-0.566 3.359-0.287 2.078-0.521 4.888-0.45 5.405 0.097 0.711 0.591 1.461 1.196 1.815 0.775 0.455 3.849 1.241 5.841 1.494 1.233 0.157 2.009 0.207 2.036 0.132 0.036-0.1 0.275-1.289 0.275-1.37-0-0.042-0.275-0.116-0.674-0.181-0.837-0.136-1.737-0.414-2.51-0.775-0.709-0.332-1.833-1.074-2.329-1.539-0.294-0.275-0.359-0.373-0.359-0.539 0-0.238 0.236-0.509 0.442-0.509 0.074 0 0.524 0.125 0.998 0.278 2.333 0.752 4.858 1.223 6.564 1.223 1.675 0 4.201-0.471 6.518-1.217 0.481-0.155 0.939-0.282 1.018-0.283 0.212-0.002 0.45 0.266 0.45 0.508 0 0.16-0.061 0.259-0.295 0.477-1.33 1.24-3.218 2.138-5.056 2.404-0.398 0.058-0.52 0.098-0.518 0.172 0.001 0.053 0.064 0.391 0.141 0.751l0.067 0.318c0.041 0.194 0.217 0.33 0.415 0.32 1.704-0.079 4.193-0.544 6.139-1.145 1.213-0.375 1.512-0.529 1.949-1.002 0.515-0.557 0.624-0.895 0.625-1.929l0-0.364c0-0.271 0.21-0.495 0.48-0.512 0.266-0.017 0.498 0.182 0.52 0.448l0.004 0.048c0.115 1.388-0.23 2.409-1.087 3.212-0.548 0.514-1.159 0.777-2.995 1.294-1.888 0.531-4.87 1.005-6.319 1.005-0.45 0-0.485-0.071-0.79-1.594-0.151-0.754-0.275-1.418-0.275-1.476s0.051-0.169 0.114-0.247c0.098-0.121 0.219-0.153 0.849-0.226 0.713-0.082 1.883-0.321 1.83-0.374-0.014-0.014-0.22 0.014-0.457 0.063-1.069 0.221-2.066 0.316-3.335 0.316s-2.267-0.094-3.335-0.316c-0.237-0.049-0.443-0.077-0.457-0.063-0.053 0.053 1.117 0.292 1.83 0.374 0.63 0.072 0.752 0.105 0.849 0.226 0.063 0.078 0.114 0.189 0.114 0.247s-0.124 0.723-0.275 1.476c-0.306 1.523-0.341 1.594-0.79 1.594-0.851 0-3.007-0.265-4.369-0.536-1.566-0.312-3.784-0.98-4.352-1.31-0.46-0.267-1.082-0.936-1.317-1.414-0.37-0.754-0.423-1.159-0.336-2.558 0.139-2.233 0.415-4.491 0.824-6.725 0.101-0.551 0.183-1.008 0.183-1.017zM10.254 13.612c-1.584 0.427-2.564 2.069-2.16 3.621 0.387 1.487 1.817 2.459 3.303 2.244 1.329-0.192 2.364-1.225 2.554-2.549 0.299-2.081-1.682-3.859-3.697-3.316zM20.248 13.612c-1.584 0.427-2.564 2.069-2.16 3.621 0.387 1.487 1.817 2.459 3.303 2.244 1.329-0.192 2.364-1.225 2.554-2.549 0.299-2.081-1.682-3.859-3.697-3.316zM11.815 14.697c0.432 0.204 0.702 0.461 0.934 0.892 0.194 0.361 0.213 0.442 0.214 0.928 0.001 0.493-0.015 0.561-0.222 0.938-0.961 1.749-3.567 1.194-3.728-0.794-0.073-0.901 0.473-1.722 1.36-2.046 0.372-0.136 1.063-0.097 1.442 0.082zM21.809 14.697c0.432 0.204 0.702 0.461 0.934 0.892 0.194 0.361 0.213 0.442 0.214 0.928 0.001 0.493-0.015 0.561-0.222 0.938-0.961 1.749-3.567 1.194-3.728-0.794-0.073-0.901 0.473-1.722 1.36-2.046 0.372-0.136 1.063-0.097 1.442 0.082z"></path>
        </symbol>
        <symbol id="icon-grant" viewBox="0 0 37 32">
            <path stroke-linejoin="miter" stroke-linecap="butt" stroke-miterlimit="4" stroke-width="0.8205" d="M11.011 9.608v9.608h4.454l0.133 0.296c0.073 0.163 0.226 0.424 0.34 0.581l0.206 0.286-0.379 0.768c-0.208 0.423-0.364 0.782-0.347 0.798 0.062 0.058 1.771 0.9 1.826 0.9 0.031 0 0.223-0.336 0.427-0.747l0.371-0.747h0.821l0.371 0.747c0.204 0.411 0.404 0.747 0.444 0.747 0.067 0 1.77-0.832 1.843-0.9 0.018-0.016-0.139-0.376-0.347-0.799l-0.379-0.769 0.245-0.356c0.134-0.196 0.286-0.457 0.338-0.581l0.093-0.225h4.459v-19.215h-14.919v9.608zM23.8 9.608v7.473l-2.309-0.001-0.239-0.462c-0.269-0.522-0.824-1.074-1.322-1.315-0.969-0.47-1.954-0.467-2.927 0.008-0.461 0.225-1.16 0.935-1.375 1.396l-0.174 0.374h-2.311v-14.945h10.657v7.473zM15.274 5.338v1.068h6.394v-2.135h-6.394v1.067zM1.24 4.75c-0.239 0.574-0.599 1.72-0.721 2.295-0.189 0.893-0.173 2.28 0.035 3.010 0.168 0.592 0.525 1.351 0.827 1.758 0.586 0.791 1.687 1.681 2.722 2.199 0.407 0.204 0.444 0.242 0.445 0.453 0.001 0.219 0.144 1.37 0.253 2.038 0.050 0.307 0.048 0.312-0.125 0.269-0.555-0.14-1.604-0.195-2.32-0.122-0.722 0.073-1.968 0.302-2.039 0.374-0.068 0.068 0.271 1.821 0.48 2.476 0.792 2.49 2.355 3.921 4.745 4.346 0.254 0.045 0.914 0.080 1.467 0.078l1.005-0.004 0.581 0.666c0.32 0.366 0.773 0.834 1.008 1.039l0.427 0.372-0.628 0.328c-0.346 0.18-0.75 0.411-0.898 0.514-0.478 0.33-1.354 1.112-1.744 1.556l-0.379 0.432 0.556 0.572c2.909 2.994 5.936 3.407 8.944 1.219l0.572-0.416 2.014 1.108 0.872-0.471c0.479-0.259 0.933-0.509 1.009-0.555 0.118-0.072 0.217-0.026 0.71 0.331 0.722 0.522 1.686 1.003 2.421 1.21 0.734 0.206 1.958 0.22 2.7 0.032 0.667-0.17 1.806-0.734 2.413-1.196 0.546-0.415 1.785-1.577 1.889-1.772 0.053-0.1-0.065-0.256-0.63-0.828-0.798-0.809-1.412-1.27-2.308-1.735l-0.631-0.327 0.427-0.372c0.235-0.205 0.689-0.672 1.009-1.039l0.581-0.666 1.005 0.004c0.553 0.002 1.213-0.033 1.467-0.078 2.889-0.513 4.506-2.401 5.12-5.978 0.107-0.625 0.12-0.826 0.054-0.867-0.047-0.029-0.455-0.124-0.907-0.212-0.932-0.18-2.384-0.216-3.089-0.077-0.231 0.046-0.434 0.070-0.45 0.054s0.020-0.344 0.080-0.729c0.060-0.385 0.131-0.95 0.158-1.255l0.049-0.556 0.434-0.217c1.317-0.659 2.546-1.78 3.080-2.809 0.733-1.412 0.836-2.891 0.332-4.776-0.183-0.684-0.575-1.787-0.675-1.897-0.080-0.088-1.434 0.391-2.222 0.788-1.231 0.619-2.118 1.36-2.711 2.265-0.948 1.446-1.133 3.434-0.517 5.551 0.243 0.835 0.107 2.322-0.384 4.19-0.191 0.726-0.263 0.892-0.507 1.174-0.702 0.811-1.257 1.9-1.578 3.097-0.093 0.348-0.259 0.765-0.367 0.925-0.33 0.488-1.928 2.042-2.707 2.634-0.557 0.423-0.83 0.582-1.137 0.66-0.568 0.146-1.734 0.721-2.322 1.146-0.274 0.197-0.74 0.58-1.036 0.85-0.312 0.285-0.767 0.609-1.083 0.771l-0.545 0.28-0.547-0.281c-0.323-0.166-0.767-0.483-1.083-0.774-0.295-0.271-0.76-0.653-1.034-0.849-0.607-0.435-1.786-1.017-2.289-1.13-0.282-0.064-0.556-0.221-1.137-0.655-0.793-0.591-2.393-2.141-2.739-2.652-0.109-0.16-0.274-0.577-0.367-0.925-0.317-1.184-0.909-2.351-1.558-3.070-0.303-0.336-0.352-0.458-0.616-1.542-0.402-1.647-0.521-3.095-0.312-3.779 0.338-1.101 0.461-2.409 0.32-3.386-0.284-1.956-1.445-3.452-3.478-4.479-0.615-0.31-1.998-0.854-2.175-0.854-0.058 0-0.155 0.12-0.216 0.267zM3.381 7.656c0.893 0.632 1.418 1.387 1.595 2.295 0.092 0.47 0.059 1.62-0.055 1.922-0.062 0.165-0.065 0.164-0.603-0.197-1.022-0.685-1.593-1.5-1.765-2.518-0.080-0.476-0.061-1.206 0.046-1.737 0.054-0.269 0.082-0.261 0.782 0.234zM34.426 8.184c0.107 1.484-0.468 2.598-1.802 3.492-0.538 0.361-0.541 0.361-0.603 0.197-0.114-0.302-0.147-1.452-0.055-1.922 0.187-0.957 0.758-1.737 1.767-2.413l0.541-0.362 0.054 0.202c0.030 0.111 0.074 0.474 0.098 0.807zM15.274 9.608v1.068h6.394v-2.135h-6.394v1.068zM18.954 17.215c0.308 0.157 0.583 0.597 0.583 0.933 0 0.328-0.257 0.741-0.569 0.917-0.147 0.083-0.371 0.151-0.497 0.151-0.523 0-1.069-0.553-1.063-1.077 0.004-0.344 0.216-0.695 0.536-0.889 0.336-0.204 0.656-0.214 1.009-0.034zM3.742 18.79c1.125 0.141 1.903 0.538 2.477 1.262 0.327 0.412 0.763 1.233 0.855 1.608l0.050 0.203-0.56-0.049c-1.781-0.156-2.708-0.734-3.39-2.117-0.179-0.363-0.345-0.732-0.369-0.82-0.052-0.191 0.043-0.2 0.937-0.088zM34.138 18.877c-0.024 0.088-0.19 0.457-0.369 0.82-0.682 1.383-1.608 1.961-3.39 2.117l-0.56 0.049 0.049-0.203c0.088-0.361 0.529-1.188 0.857-1.606 0.665-0.848 1.702-1.285 3.15-1.328 0.285-0.008 0.304 0.002 0.263 0.151zM12.89 27.864c0.428 0.112 1.36 0.567 1.674 0.819 0.201 0.161 0.245 0.109-0.487 0.565-1.335 0.831-2.675 0.82-4.051-0.031-0.664-0.411-0.627-0.365-0.432-0.528 0.282-0.236 1.229-0.709 1.64-0.82 0.504-0.136 1.143-0.137 1.655-0.003zM25.678 27.864c0.428 0.112 1.36 0.567 1.674 0.819 0.201 0.161 0.245 0.109-0.487 0.565-1.315 0.818-2.684 0.818-3.999 0-0.732-0.455-0.688-0.404-0.487-0.565 0.299-0.24 1.241-0.707 1.644-0.815 0.504-0.136 1.143-0.137 1.655-0.003z"></path>
        </symbol>
        <symbol id="icon-Instagram" viewBox="0 0 32 32">
            <path d="M8.313 0.061c-3.126 0.349-5.905 2.308-7.341 5.175-0.46 0.919-0.785 2.049-0.905 3.146-0.090 0.829-0.090 14.397 0 15.226 0.479 4.404 3.919 7.845 8.321 8.324 0.829 0.090 14.393 0.090 15.222 0 2.145-0.233 4.020-1.122 5.568-2.64 1.57-1.539 2.515-3.49 2.754-5.684 0.090-0.829 0.090-14.397 0-15.226-0.233-2.146-1.122-4.021-2.639-5.569-1.539-1.57-3.489-2.516-5.682-2.755-0.73-0.079-14.584-0.077-15.298 0.003zM24.185 1.392c1.27 0.304 2.298 0.762 3.257 1.453 1.273 0.917 2.416 2.499 2.889 4.001 0.407 1.291 0.386 0.786 0.386 9.15 0 7.088-0.008 7.63-0.113 8.119-0.167 0.774-0.402 1.477-0.682 2.040-1.171 2.348-3.172 3.882-5.806 4.45-0.488 0.105-1.031 0.113-8.116 0.113s-7.628-0.008-8.116-0.113c-1.743-0.376-3.196-1.164-4.34-2.353-1.090-1.133-1.792-2.484-2.148-4.137-0.105-0.489-0.113-1.031-0.113-8.119s0.008-7.63 0.113-8.119c0.356-1.653 1.058-3.004 2.148-4.137 1.258-1.308 3.009-2.191 4.809-2.427 0.238-0.031 3.758-0.051 7.897-0.044 6.932 0.011 7.502 0.020 7.936 0.124zM8.302 2.837c-1.316 0.222-2.494 0.812-3.473 1.742-1.073 1.020-1.747 2.295-1.986 3.759-0.136 0.837-0.136 14.479 0 15.315 0.396 2.427 2.089 4.445 4.383 5.223 0.962 0.326 1.442 0.372 3.913 0.372l2.233 0 0.203-0.181c0.273-0.244 0.287-0.61 0.031-0.866l-0.172-0.172-4.966-0.070-0.562-0.172c-1.819-0.556-3.127-1.863-3.699-3.696l-0.176-0.563v-15.065l0.176-0.563c0.572-1.832 1.868-3.128 3.699-3.7l0.562-0.176h15.061l0.562 0.176c1.831 0.572 3.128 1.868 3.699 3.7l0.176 0.563v15.065l-0.176 0.563c-0.572 1.833-1.879 3.14-3.699 3.697l-0.562 0.172-2.344 0.020c-1.289 0.011-2.409 0.035-2.489 0.053s-0.214 0.106-0.297 0.196c-0.269 0.29-0.168 0.76 0.204 0.95 0.218 0.112 4.341 0.093 5.050-0.022 2.843-0.464 5.038-2.659 5.501-5.503 0.136-0.837 0.136-14.479 0-15.315-0.463-2.844-2.658-5.039-5.501-5.503-0.778-0.127-14.599-0.126-15.354 0.001zM23.456 5.544c-1.662 0.59-2.152 2.677-0.918 3.911 1.165 1.165 3.11 0.804 3.829-0.711 0.14-0.296 0.163-0.427 0.163-0.938 0-0.535-0.019-0.634-0.193-1-0.395-0.831-1.149-1.329-2.056-1.36-0.363-0.013-0.589 0.014-0.825 0.098zM24.642 6.767c0.997 0.427 0.825 1.91-0.247 2.131-0.686 0.141-1.441-0.614-1.3-1.301 0.063-0.304 0.316-0.65 0.576-0.787 0.276-0.146 0.688-0.164 0.971-0.043zM15.25 7.413c-1.23 0.097-3.234 0.764-3.438 1.145-0.142 0.265-0.093 0.572 0.12 0.763 0.251 0.225 0.402 0.219 1.024-0.036 1.227-0.504 1.811-0.624 3.043-0.629 0.912-0.003 1.555 0.088 2.243 0.318 2.562 0.856 4.42 2.938 4.985 5.585 0.155 0.726 0.155 2.146 0.001 2.868-0.631 2.96-2.838 5.169-5.791 5.799-0.729 0.156-2.145 0.156-2.875 0-2.646-0.564-4.728-2.423-5.583-4.986-0.231-0.691-0.321-1.331-0.317-2.243 0.005-1.286 0.179-2.030 0.794-3.397 0.183-0.407 0.211-0.523 0.164-0.685-0.079-0.275-0.249-0.423-0.532-0.46-0.34-0.045-0.505 0.105-0.824 0.748-1.626 3.282-0.952 7.28 1.665 9.885 3.383 3.366 8.758 3.366 12.141 0 3.387-3.37 3.387-8.81 0-12.18-1.824-1.815-4.235-2.696-6.82-2.493zM10.207 9.632c-0.076 0.036-0.183 0.162-0.239 0.28-0.239 0.504 0.214 1.010 0.747 0.834 0.63-0.208 0.509-1.197-0.145-1.185-0.124 0.002-0.288 0.034-0.363 0.071zM14.983 10.464c-1.73 0.328-3.244 1.482-4.017 3.062-0.436 0.89-0.548 1.397-0.548 2.469 0 0.737 0.025 1 0.136 1.406 0.427 1.566 1.542 2.925 2.977 3.628 0.889 0.436 1.397 0.549 2.468 0.549s1.58-0.113 2.468-0.549c1.435-0.704 2.55-2.062 2.977-3.628 0.111-0.407 0.136-0.669 0.136-1.406 0-1.072-0.113-1.579-0.548-2.469-0.703-1.436-2.086-2.569-3.628-2.972-0.662-0.173-1.77-0.214-2.423-0.090zM16.862 11.717c0.274 0.056 0.738 0.221 1.075 0.383 0.505 0.243 0.674 0.367 1.135 0.831 0.451 0.455 0.588 0.643 0.824 1.133 0.632 1.309 0.632 2.554 0 3.863-0.236 0.49-0.373 0.678-0.824 1.133-0.46 0.464-0.63 0.588-1.135 0.831-1.32 0.634-2.555 0.634-3.875 0-0.505-0.243-0.675-0.367-1.135-0.831-0.451-0.455-0.588-0.643-0.824-1.133-0.308-0.64-0.478-1.326-0.478-1.931s0.17-1.292 0.478-1.932c0.236-0.49 0.373-0.678 0.824-1.133 0.46-0.464 0.63-0.588 1.135-0.831 0.957-0.46 1.827-0.579 2.799-0.382zM15.781 28.054c-0.398 0.171-0.504 0.687-0.202 0.989 0.129 0.129 0.232 0.171 0.42 0.171 0.727 0 0.811-1.063 0.094-1.182-0.103-0.017-0.244-0.007-0.313 0.022z"></path>
        </symbol>
        <symbol id="icon-languages" viewBox="0 0 56 32">
            <path stroke-linejoin="miter" stroke-linecap="butt" stroke-miterlimit="4" stroke-width="4" d="M4 2l22.957 24 25.043-24"></path>
        </symbol>
        <symbol id="icon-letter-logo" viewBox="0 0 35 32">
            <path d="M1.287 1.299l1.287 1.299h29.773l2.193-2.599h-34.54l1.287 1.299zM4.542 4.896l1.262 1.431 6.823 0.026 0.086 2.035 0.086 2.035 2.331-2.821c1.282-1.552 2.57-3.117 2.863-3.479l0.531-0.658h-15.245l1.263 1.431zM19.21 7.633c-2.027 2.472-1.891 1.613-1.888 11.928 0.001 5.162 0.099 9.525 0.217 9.695s1.034 0.858 2.036 1.527l1.821 1.217v-22.545l8.014-0 2.509-2.887h-11.835l-0.874 1.066zM14.759 9.905l-1.828 2.19 0.079 5.571 0.079 8.879 1.673 1.139c0.92 0.626 1.741 1.070 1.826 0.987s0.119-7.396 0.076-12.208l-0.077-8.747-1.828 2.19z"></path>
        </symbol>
        <symbol id="icon-line_1" viewBox="0 0 32 32">
            <path stroke-linejoin="miter" stroke-linecap="butt" stroke-miterlimit="4" stroke-width="1.3526" d="M32 30.968h-30.968M1.376 0v30.627"></path>
        </symbol>
        <symbol id="icon-line_2" viewBox="0 0 32 32">
            <path stroke-linejoin="miter" stroke-linecap="butt" stroke-miterlimit="4" stroke-width="1.3526" d="M0 1.032h30.968M30.624 32v-30.627"></path>
        </symbol>
        <symbol id="icon-LinkedIn" viewBox="0 0 32 32">
            <path d="M1.265 0.119c-0.628 0.217-1.075 0.713-1.21 1.345-0.049 0.229-0.063 4.436-0.050 14.725l0.019 14.405 0.132 0.284c0.193 0.416 0.487 0.719 0.889 0.916l0.356 0.174 11.295 0.017c8.43 0.012 11.339-0.002 11.47-0.056 0.187-0.077 0.357-0.34 0.357-0.555 0-0.207-0.163-0.469-0.342-0.55-0.125-0.057-2.8-0.075-11.303-0.075-12.114 0-11.392 0.021-11.558-0.342-0.109-0.238-0.109-28.575 0-28.813 0.127-0.279 0.343-0.342 1.171-0.342s1.031-0.056 1.168-0.322c0.167-0.324 0.051-0.715-0.253-0.854-0.269-0.122-1.748-0.094-2.14 0.041zM5.318 0.090c-0.542 0.3-0.316 1.163 0.306 1.163 0.317 0 0.626-0.305 0.626-0.619 0-0.469-0.519-0.772-0.932-0.544zM7.822 0.090c-0.419 0.233-0.406 0.893 0.023 1.088 0.125 0.057 2.799 0.075 11.297 0.075s11.171 0.018 11.297 0.075c0.366 0.166 0.342-0.836 0.342 14.674s0.023 14.507-0.342 14.674c-0.098 0.045-0.466 0.075-0.915 0.075-0.827 0-1.043 0.063-1.171 0.342-0.099 0.216-0.094 0.376 0.016 0.59 0.147 0.284 0.362 0.333 1.36 0.308 0.831-0.020 0.922-0.034 1.251-0.196 0.403-0.198 0.697-0.5 0.889-0.916l0.132-0.284v-29.185l-0.175-0.355c-0.198-0.402-0.501-0.696-0.917-0.888l-0.285-0.132-11.326-0.014c-9.33-0.011-11.352 0.001-11.476 0.069zM7.017 4.531c-1.192 0.27-2.133 1.159-2.481 2.342-0.13 0.441-0.13 1.318 0 1.758 0.531 1.805 2.454 2.841 4.176 2.249 0.573-0.197 0.875-0.385 1.301-0.81 1.045-1.044 1.279-2.511 0.611-3.833-0.231-0.458-0.896-1.151-1.303-1.358-0.749-0.382-1.593-0.509-2.303-0.348zM8.61 5.943c0.424 0.208 0.749 0.539 0.972 0.993 0.199 0.406 0.196 1.223-0.006 1.638-0.226 0.464-0.539 0.78-0.994 1.004-0.801 0.394-1.686 0.242-2.322-0.4-0.384-0.387-0.535-0.74-0.562-1.313-0.027-0.57 0.077-0.937 0.38-1.332 0.613-0.801 1.62-1.035 2.533-0.589zM20.392 11.47c-0.888 0.199-1.556 0.475-2.205 0.914-0.198 0.133-0.373 0.243-0.391 0.243s-0.032-0.087-0.032-0.194c0-0.271-0.165-0.588-0.35-0.673-0.207-0.094-4.797-0.1-4.972-0.007-0.322 0.172-0.309-0.142-0.309 7.9v7.47l0.365 0.408 2.476 0.018c2.675 0.019 2.742 0.012 2.93-0.315 0.062-0.109 0.087-1.163 0.111-4.733l0.031-4.593 0.185-0.333c0.22-0.397 0.448-0.601 0.904-0.81 0.888-0.408 1.957-0.017 2.436 0.89l0.167 0.316 0.031 4.608 0.031 4.608 0.347 0.346 2.469 0.018c2.668 0.019 2.736 0.012 2.923-0.315 0.063-0.111 0.080-1.222 0.080-5.296 0-4.759-0.009-5.197-0.114-5.686-0.488-2.264-2.1-3.998-4.331-4.66-0.707-0.209-2.117-0.272-2.783-0.123zM4.984 11.872l-0.204 0.182v7.52c0 5.994 0.016 7.548 0.080 7.66 0.187 0.327 0.255 0.334 2.93 0.315l2.476-0.018 0.365-0.408v-7.47c0-8.042 0.012-7.728-0.309-7.9-0.077-0.041-1.027-0.064-2.627-0.064h-2.506l-0.204 0.182zM22.989 12.842c1.308 0.444 2.269 1.267 2.851 2.441 0.51 1.029 0.497 0.872 0.497 6.259v4.771h-3.316l-0.001-4.078c-0.001-4.477-0.005-4.532-0.378-5.231-0.364-0.681-1.082-1.28-1.811-1.508-0.556-0.174-1.396-0.173-1.904 0.003-1.010 0.35-1.718 1.060-2.053 2.060-0.135 0.404-0.138 0.482-0.16 4.582l-0.022 4.171h-3.309v-13.374h3.129v0.722c0 0.844 0.069 1.042 0.405 1.152 0.12 0.040 0.281 0.053 0.356 0.029s0.421-0.329 0.768-0.677c0.645-0.649 1.053-0.933 1.731-1.206 0.652-0.263 1.082-0.332 1.934-0.308 0.65 0.018 0.867 0.050 1.283 0.191zM9.379 19.626v6.687h-3.316v-13.374h3.316v6.687zM26.093 30.837c-0.542 0.3-0.316 1.163 0.306 1.163 0.317 0 0.626-0.305 0.626-0.619 0-0.469-0.519-0.772-0.932-0.544z"></path>
        </symbol>
        <symbol id="icon-logo" viewBox="0 0 142 32">
            <path d="M2.514 2.599h29.083l2.142-2.599h-33.739l2.514 2.599zM5.67 6.327l6.665 0.026 0.167 4.070 2.277-2.821c1.253-1.552 2.511-3.117 2.796-3.479l0.519-0.658h-14.891l2.466 2.862zM18.765 7.633c-1.98 2.472-1.847 1.613-1.844 11.928 0.001 5.162 0.096 9.525 0.211 9.695s1.010 0.858 1.988 1.527l1.779 1.217v-22.545l7.829-0 2.451-2.887h-11.561l-0.854 1.066zM12.632 12.095l0.077 5.571 0.077 8.879 1.634 1.139c0.899 0.626 1.701 1.070 1.784 0.987s0.116-7.396 0.074-12.208l-0.076-8.747-3.571 4.379z"></path>
            <path d="M42.431 9.802h8.538v1.81h-6.466v3.913h5.609v1.81h-5.609v5.266h-2.072v-12.8z"></path>
            <path d="M52.405 11.539v-1.061l0.732-0.731h1.090l0.732 0.731v1.061l-0.732 0.732h-1.090l-0.732-0.732zM52.673 13.496h2.018v9.106h-2.018v-9.106z"></path>
            <path d="M57.186 13.496h1.876v1.664l1.625-1.664h2.822l1.875 1.92v7.186h-2.018v-6.619l-0.697-0.713h-1.608l-1.858 1.92v5.413h-2.018v-9.106z"></path>
            <path d="M67.528 11.539v-1.061l0.732-0.731h1.090l0.732 0.731v1.061l-0.732 0.732h-1.090l-0.732-0.732zM67.796 13.496h2.018v9.106h-2.018v-9.106z"></path>
            <path d="M73.113 20.792v-5.541h-1.608v-1.755h1.643v-2.962h1.983v2.962h2.733v1.755h-2.733v4.882l0.697 0.713h2.036v1.755h-2.983l-1.768-1.81z"></path>
            <path d="M87.605 13.496v11.264l-1.84 1.865h-4.537l-1.572-1.591v-1.207h2.018v0.604l0.429 0.457h2.787l0.697-0.732v-3.108l-1.5 1.554h-2.876l-1.822-1.883v-7.223h2.018v6.619l0.697 0.713h1.625l1.858-1.975v-5.358h2.018z"></path>
            <path d="M97.566 11.612h-3.751v-1.81h9.574v1.81h-3.751v10.99h-2.072v-10.99z"></path>
            <path d="M103.127 20.773v-5.449l1.768-1.829h4.93l1.786 1.829v5.449l-1.786 1.829h-4.93l-1.768-1.829zM108.878 20.865l0.714-0.732v-4.169l-0.714-0.731h-3.019l-0.715 0.731v4.169l0.715 0.732h3.019z"></path>
            <path d="M113.665 20.755v-7.259h2.018v6.619l0.697 0.713h1.554l1.893-1.938v-5.394h2.018v9.106h-1.875v-1.682l-1.662 1.682h-2.84l-1.804-1.847z"></path>
            <path d="M123.989 20.792v-5.486l1.751-1.81h4.697l1.768 1.829v1.499h-2.018v-0.841l-0.715-0.713h-2.751l-0.713 0.713v4.133l0.713 0.713h2.751l0.715-0.713v-0.841h2.018v1.499l-1.768 1.829h-4.697l-1.751-1.81z"></path>
            <path d="M133.988 9.546h2.018v5.522l1.536-1.572h2.805l1.875 1.92v7.186h-2.018v-6.619l-0.697-0.713h-1.643l-1.858 1.92v5.413h-2.018v-13.056z"></path>
        </symbol>
        <symbol id="icon-menu" viewBox="0 0 53 32">
            <path stroke-linejoin="miter" stroke-linecap="butt" stroke-miterlimit="4" stroke-width="3.5556" d="M0 1.778h53.333M0 16h53.333M0 30.222h53.333"></path>
        </symbol>
        <symbol id="icon-nft" viewBox="0 0 32 32">
            <path d="M15.305 0.101c-0.183 0.056-1.758 0.886-3.499 1.844-3.256 1.792-3.639 2.044-3.946 2.591l-0.144 0.256h-1.081l-0.508-0.521 0.122-0.356c0.196-0.571 0.163-1.151-0.096-1.677-0.644-1.309-2.296-1.625-3.369-0.643-0.423 0.387-0.645 0.847-0.692 1.439-0.122 1.519 1.375 2.659 2.841 2.162l0.424-0.144 0.84 0.807h1.278v2.667h-3.256l-0.163-0.356c-0.2-0.438-0.541-0.788-0.999-1.025-0.296-0.154-0.431-0.181-0.914-0.182-0.674-0.002-1.061 0.154-1.522 0.614-0.434 0.434-0.576 0.8-0.576 1.482s0.142 1.047 0.576 1.482c0.448 0.448 0.849 0.614 1.488 0.617 0.439 0.002 0.599-0.029 0.905-0.173 0.471-0.221 0.832-0.581 1.041-1.037l0.163-0.356h3.256v2.134h-1.278l-0.84 0.807-0.405-0.137c-0.696-0.235-1.373-0.14-1.928 0.268-0.348 0.256-0.681 0.726-0.681 0.961 0 0.241 0.276 0.502 0.532 0.502 0.16 0 0.28-0.079 0.554-0.361 0.524-0.541 1.046-0.587 1.583-0.137 0.307 0.257 0.579 0.298 0.746 0.114 0.058-0.064 0.278-0.304 0.488-0.534l0.382-0.417h0.83l0.030 0.41c0.024 0.325 0.061 0.436 0.182 0.533 0.214 0.174 0.51 0.157 0.707-0.040l0.164-0.164v-3.926c0-4.357-0.003-4.32 0.435-4.771 0.142-0.147 1.3-0.828 3.111-1.831 1.587-0.879 3.014-1.663 3.173-1.743 0.39-0.197 0.842-0.242 1.198-0.118 0.544 0.189 6.231 3.386 6.526 3.669 0.495 0.474 0.485 0.373 0.488 4.775 0.002 4.123-0.005 4.027 0.31 4.195 0.225 0.12 0.412 0.093 0.591-0.086 0.134-0.134 0.164-0.23 0.164-0.533v-0.37h0.846l0.377 0.395c0.207 0.217 0.377 0.423 0.377 0.456 0 0.076 0.298 0.216 0.46 0.216 0.066 0 0.252-0.105 0.413-0.233 0.561-0.446 1.049-0.403 1.573 0.139 0.407 0.42 0.648 0.471 0.922 0.197 0.214-0.214 0.206-0.409-0.030-0.783-0.48-0.758-1.501-1.095-2.396-0.791l-0.424 0.144-0.84-0.807h-1.278v-2.134h3.256l0.163 0.356c0.2 0.438 0.541 0.788 0.999 1.025 0.296 0.154 0.431 0.181 0.914 0.182 0.674 0.002 1.061-0.154 1.522-0.614 0.434-0.434 0.576-0.8 0.576-1.482s-0.142-1.047-0.576-1.482c-0.461-0.461-0.847-0.617-1.522-0.615-0.483 0.002-0.618 0.029-0.914 0.182-0.458 0.237-0.798 0.587-0.999 1.025l-0.163 0.356h-3.256v-2.667h1.278l0.84-0.807 0.424 0.144c1.033 0.35 2.148-0.126 2.638-1.128 0.155-0.316 0.184-0.462 0.184-0.91s-0.030-0.594-0.184-0.91c-0.216-0.441-0.664-0.878-1.103-1.077-0.436-0.198-1.254-0.198-1.69 0-1.033 0.468-1.548 1.626-1.191 2.68l0.144 0.427-0.251 0.257c-0.25 0.256-0.253 0.257-0.787 0.257l-0.536-0-0.179-0.283c-0.099-0.156-0.294-0.393-0.433-0.528-0.324-0.312-6.377-3.702-6.908-3.868-0.465-0.146-1.021-0.15-1.477-0.011zM4.697 2.215c0.685 0.286 0.852 1.185 0.319 1.717-0.432 0.433-1.050 0.433-1.482 0-0.824-0.825 0.085-2.168 1.163-1.717zM28.157 2.215c0.685 0.286 0.852 1.185 0.319 1.717-0.436 0.436-1.033 0.433-1.474-0.008-0.828-0.829 0.073-2.162 1.155-1.71zM9.771 7.090l-0.164 0.164v4.68l0.164 0.164c0.199 0.199 0.493 0.214 0.712 0.036 0.155-0.125 0.158-0.153 0.191-1.579l0.033-1.452 1.153 1.54c0.634 0.847 1.199 1.558 1.255 1.579 0.211 0.081 0.436 0.034 0.594-0.124l0.164-0.164v-4.68l-0.164-0.164c-0.199-0.199-0.493-0.214-0.712-0.036-0.155 0.125-0.158 0.153-0.191 1.579l-0.033 1.452-1.153-1.54c-0.634-0.847-1.199-1.558-1.255-1.579-0.211-0.081-0.436-0.034-0.594 0.125zM15.102 7.090l-0.164 0.164v4.68l0.164 0.164c0.103 0.103 0.24 0.164 0.37 0.164s0.266-0.060 0.37-0.164c0.158-0.158 0.164-0.197 0.164-1.067v-0.903h0.903c0.87 0 0.909-0.006 1.066-0.164 0.216-0.217 0.216-0.523 0-0.74-0.158-0.158-0.197-0.164-1.066-0.164h-0.903v-1.067h0.903c0.87 0 0.909-0.006 1.066-0.164 0.103-0.103 0.164-0.24 0.164-0.37s-0.060-0.267-0.164-0.37c-0.162-0.162-0.174-0.164-1.436-0.164s-1.274 0.001-1.436 0.164zM19.368 7.090c-0.103 0.103-0.164 0.24-0.164 0.37 0 0.34 0.252 0.533 0.697 0.533h0.37v3.941l0.164 0.164c0.103 0.103 0.24 0.164 0.37 0.164s0.266-0.060 0.37-0.164l0.164-0.164v-3.941h0.37c0.445 0 0.697-0.193 0.697-0.533 0-0.13-0.060-0.267-0.164-0.37-0.162-0.162-0.174-0.164-1.436-0.164s-1.274 0.001-1.436 0.164zM2.565 8.084c0.69 0.288 0.851 1.17 0.311 1.71-0.441 0.441-1.038 0.444-1.474 0.008-0.824-0.825 0.085-2.168 1.163-1.717zM30.289 8.084c0.69 0.288 0.851 1.17 0.311 1.71-0.441 0.441-1.038 0.444-1.474 0.008-0.824-0.825 0.085-2.168 1.163-1.717zM3.693 15.033c-1.771 0.388-3.207 1.843-3.583 3.63-0.147 0.7-0.147 9.896 0 10.52 0.311 1.32 1.446 2.443 2.748 2.719 1.031 0.219 2.29 0.063 3.073-0.38 0.5-0.283 1.191-0.993 1.458-1.497 0.167-0.316 0.46-0.64 1.309-1.45l1.093-1.043h12.429l1.091 1.041c0.851 0.812 1.138 1.131 1.307 1.45 0.122 0.231 0.42 0.614 0.683 0.877 0.757 0.758 1.623 1.098 2.799 1.097 1.229-0 2.1-0.343 2.851-1.121 0.732-0.758 1.045-1.576 1.047-2.731 0.001-0.57-0.012-0.633-0.163-0.784-0.216-0.217-0.523-0.217-0.739 0-0.149 0.149-0.164 0.216-0.164 0.76 0 1.348-0.632 2.295-1.784 2.674-0.777 0.255-1.924 0.152-2.58-0.232-0.401-0.235-0.881-0.77-1.065-1.186-0.128-0.29-0.388-0.572-1.496-1.624-0.967-0.918-1.399-1.284-1.548-1.314-0.268-0.054-12.638-0.054-12.906-0.001-0.144 0.029-0.593 0.41-1.548 1.315-1.111 1.053-1.372 1.335-1.5 1.624-0.183 0.415-0.664 0.95-1.065 1.185-0.93 0.546-2.481 0.484-3.314-0.131-0.426-0.314-0.755-0.778-0.916-1.29-0.129-0.408-0.134-0.606-0.134-5.204 0-5.181-0.002-5.15 0.37-5.919 0.382-0.789 1.117-1.452 2.004-1.807l0.458-0.184h24.126l0.5 0.185c0.991 0.367 1.777 1.144 2.182 2.157l0.183 0.459 0.034 3.524 0.034 3.524 0.157 0.127c0.219 0.177 0.514 0.162 0.712-0.036l0.164-0.164v-3.298c0-3.815-0.017-3.978-0.504-4.966-0.495-1.003-1.37-1.827-2.407-2.265-0.852-0.36-0.338-0.347-13.138-0.339-9.75 0.006-11.915 0.023-12.258 0.098zM24.003 16.616c-0.327 0.103-0.885 0.681-0.985 1.021-0.185 0.625-0.054 1.124 0.417 1.595 0.682 0.683 1.623 0.668 2.255-0.035 0.62-0.69 0.6-1.519-0.051-2.17-0.469-0.469-1.015-0.606-1.635-0.411zM4.972 17.226c-0.158 0.158-0.164 0.197-0.164 1.067v0.903h-0.903c-0.87 0-0.909 0.006-1.066 0.164-0.162 0.162-0.164 0.174-0.164 1.437s0.001 1.274 0.164 1.437c0.158 0.158 0.197 0.164 1.066 0.164h0.903v0.903c0 0.87 0.006 0.909 0.164 1.067 0.162 0.162 0.174 0.164 1.436 0.164s1.274-0.001 1.436-0.164c0.158-0.158 0.164-0.197 0.164-1.067v-0.903h0.903c0.87 0 0.909-0.006 1.066-0.164 0.162-0.162 0.164-0.174 0.164-1.437s-0.001-1.274-0.164-1.437c-0.158-0.158-0.197-0.164-1.066-0.164h-0.903v-0.903c0-0.87-0.006-0.909-0.164-1.067-0.162-0.162-0.174-0.164-1.436-0.164s-1.274 0.001-1.436 0.164zM12.437 17.226c-0.103 0.103-0.164 0.24-0.164 0.37s0.060 0.267 0.164 0.37c0.162 0.162 0.174 0.164 1.436 0.164s1.274-0.001 1.436-0.164c0.103-0.103 0.164-0.24 0.164-0.37s-0.060-0.267-0.164-0.37c-0.162-0.162-0.174-0.164-1.436-0.164s-1.274 0.001-1.436 0.164zM16.702 17.226c-0.103 0.103-0.164 0.24-0.164 0.37s0.060 0.267 0.164 0.37c0.162 0.162 0.174 0.164 1.436 0.164s1.274-0.001 1.436-0.164c0.103-0.103 0.164-0.24 0.164-0.37s-0.060-0.267-0.164-0.37c-0.162-0.162-0.174-0.164-1.436-0.164s-1.274 0.001-1.436 0.164zM24.905 17.759c0.103 0.103 0.164 0.24 0.164 0.37s-0.060 0.267-0.164 0.37c-0.103 0.103-0.24 0.164-0.37 0.164s-0.266-0.060-0.37-0.164c-0.103-0.103-0.164-0.24-0.164-0.37s0.060-0.267 0.164-0.37c0.103-0.103 0.24-0.164 0.37-0.164s0.266 0.060 0.37 0.164zM6.941 19.032c0 0.87 0.006 0.909 0.164 1.067s0.197 0.164 1.066 0.164h0.903v1.067h-0.903c-0.87 0-0.909 0.006-1.066 0.164s-0.164 0.197-0.164 1.067v0.903h-1.066v-0.903c0-0.87-0.006-0.909-0.164-1.067s-0.197-0.164-1.066-0.164h-0.903v-1.067h0.903c0.87 0 0.909-0.006 1.066-0.164s0.164-0.197 0.164-1.067v-0.903h1.066v0.903zM27.202 19.283c-0.327 0.103-0.885 0.681-0.985 1.021-0.185 0.625-0.054 1.124 0.417 1.595 0.682 0.683 1.623 0.668 2.255-0.035 0.62-0.69 0.6-1.519-0.051-2.17-0.469-0.469-1.015-0.606-1.635-0.411zM28.104 20.427c0.103 0.103 0.164 0.24 0.164 0.37s-0.060 0.267-0.164 0.37c-0.103 0.103-0.24 0.164-0.37 0.164s-0.266-0.061-0.37-0.164c-0.103-0.103-0.164-0.24-0.164-0.37s0.060-0.267 0.164-0.37c0.103-0.103 0.24-0.164 0.37-0.164s0.266 0.060 0.37 0.164zM22.403 20.884c-0.327 0.103-0.885 0.681-0.985 1.021-0.185 0.625-0.054 1.124 0.417 1.595 0.345 0.345 0.683 0.498 1.102 0.498 0.826 0 1.599-0.774 1.599-1.6 0-0.419-0.152-0.757-0.498-1.103-0.469-0.469-1.015-0.606-1.635-0.411zM12.437 21.494c-0.162 0.162-0.164 0.174-0.164 1.437 0 1.714-0.114 1.6 1.599 1.6s1.599 0.114 1.599-1.6 0.114-1.6-1.599-1.6c-1.262 0-1.274 0.001-1.436 0.164zM16.702 21.494c-0.162 0.162-0.164 0.174-0.164 1.437 0 1.714-0.114 1.6 1.599 1.6 1.262 0 1.274-0.001 1.436-0.164s0.164-0.174 0.164-1.437c0-1.714 0.114-1.6-1.599-1.6-1.262 0-1.274 0.001-1.436 0.164zM23.306 22.027c0.103 0.103 0.164 0.24 0.164 0.37s-0.060 0.267-0.164 0.37c-0.103 0.103-0.24 0.164-0.37 0.164s-0.266-0.060-0.37-0.164c-0.103-0.103-0.164-0.24-0.164-0.37s0.060-0.267 0.164-0.37c0.103-0.103 0.24-0.164 0.37-0.164s0.266 0.060 0.37 0.164zM14.406 22.93v0.533h-1.066v-1.067h1.066v0.534zM18.671 22.93v0.533h-1.066v-1.067h1.066v0.534zM25.602 23.551c-0.327 0.103-0.885 0.681-0.985 1.021-0.185 0.625-0.054 1.124 0.417 1.595 0.345 0.345 0.683 0.498 1.102 0.498 0.826 0 1.599-0.774 1.599-1.6 0-0.419-0.152-0.757-0.498-1.103-0.469-0.469-1.015-0.606-1.635-0.411zM26.505 24.695c0.103 0.103 0.164 0.24 0.164 0.37s-0.060 0.267-0.164 0.37c-0.103 0.103-0.24 0.164-0.37 0.164s-0.266-0.060-0.37-0.164c-0.103-0.103-0.164-0.24-0.164-0.37s0.060-0.267 0.164-0.37c0.103-0.103 0.24-0.164 0.37-0.164s0.266 0.060 0.37 0.164z"></path>
        </symbol>
        <symbol id="icon-plus" viewBox="0 0 32 32">
            <path stroke-linejoin="miter" stroke-linecap="butt" stroke-miterlimit="4" stroke-width="4.5714" d="M16 0v32M0 15.238h32"></path>
        </symbol>
        <symbol id="icon-reddit" viewBox="0 0 37 32">
            <path d="M29.694 0.133c-0.671 0.202-1.047 0.435-1.561 0.973-1.148 1.199-1.395 2.828-0.659 4.332 0.244 0.498 0.87 1.187 1.333 1.467 0.614 0.371 1.122 0.51 1.866 0.51 1.064 0 1.832-0.333 2.585-1.122 1.393-1.459 1.373-3.705-0.045-5.187-0.26-0.272-0.639-0.581-0.841-0.686-0.818-0.428-1.843-0.537-2.679-0.286zM31.581 1.7c0.804 0.392 1.229 1.093 1.231 2.031 0.001 0.45-0.034 0.632-0.177 0.921-0.844 1.704-3.080 1.704-3.924 0-0.238-0.48-0.249-1.317-0.024-1.822 0.519-1.167 1.795-1.666 2.893-1.13zM24.767 2.167c-0.335 0.411-0.204 0.948 0.283 1.158 0.727 0.313 1.324-0.596 0.768-1.17-0.171-0.177-0.275-0.219-0.538-0.219-0.275 0-0.355 0.036-0.513 0.23zM22.148 2.365c-0.262 0.066-1.093 0.681-1.516 1.121-0.809 0.841-1.136 1.497-1.712 3.436-0.209 0.705-0.405 1.322-0.434 1.37-0.034 0.057-0.471 0.113-1.226 0.157-3.45 0.202-6.492 1.085-9.15 2.656l-0.544 0.322-0.633-0.32c-0.793-0.402-1.347-0.53-2.269-0.525-1.782 0.010-3.351 1.048-4.177 2.764-0.942 1.958-0.489 4.34 1.109 5.831 0.245 0.228 0.472 0.415 0.505 0.415s0.060 0.261 0.061 0.58c0.004 5.404 5.009 10.097 12.227 11.464 2.249 0.426 5.299 0.487 7.47 0.15 2.233-0.347 5.079-1.23 5.604-1.738 0.237-0.23 0.228-0.72-0.019-0.974-0.261-0.269-0.477-0.285-1.033-0.078-1.879 0.7-2.837 0.976-4.202 1.212-4.261 0.738-8.733 0.156-12.248-1.593-1.704-0.848-2.842-1.668-3.919-2.823-1.246-1.337-1.963-2.657-2.291-4.217-0.136-0.647-0.122-2.202 0.025-2.845 0.723-3.154 3.348-5.829 7.29-7.43 4.582-1.86 10.402-1.86 14.983 0 3.942 1.6 6.567 4.276 7.29 7.43 0.184 0.804 0.165 2.291-0.040 3.139-0.296 1.221-1.015 2.574-1.925 3.621-0.256 0.294-0.483 0.627-0.505 0.741-0.054 0.279 0.155 0.706 0.406 0.829 0.337 0.165 0.608 0.046 1.094-0.484 1.612-1.755 2.583-4.158 2.585-6.397 0-0.57 0.002-0.575 0.244-0.729 0.635-0.405 1.37-1.463 1.674-2.411 0.401-1.251 0.317-2.528-0.244-3.692-0.827-1.718-2.394-2.754-4.176-2.764-0.923-0.005-1.477 0.124-2.27 0.526l-0.633 0.321-0.472-0.285c-2.36-1.428-5.423-2.386-8.506-2.66-0.309-0.027-0.562-0.071-0.562-0.096 0-0.165 0.78-2.525 0.947-2.867 0.275-0.562 0.836-1.18 1.448-1.596 0.276-0.188 0.536-0.406 0.577-0.486 0.191-0.368-0.001-0.912-0.369-1.044-0.127-0.046-0.25-0.079-0.274-0.074s-0.109 0.025-0.189 0.045zM5.838 12.227l0.376 0.126-0.927 0.944c-1.354 1.38-2.085 2.487-2.575 3.903-0.129 0.373-0.259 0.678-0.289 0.678-0.094-0.001-0.47-0.536-0.657-0.934-0.603-1.283-0.285-2.974 0.741-3.942 0.459-0.434 1.131-0.794 1.665-0.894 0.469-0.088 1.209-0.035 1.666 0.119zM32.878 12.108c2.455 0.414 3.621 3.495 2.080 5.495-0.116 0.151-0.236 0.275-0.265 0.275s-0.159-0.305-0.289-0.678c-0.49-1.416-1.221-2.523-2.576-3.904l-0.927-0.945 0.376-0.117c0.703-0.218 0.946-0.238 1.602-0.127zM12.554 15.142c-0.571 0.159-0.945 0.382-1.365 0.815-1.077 1.111-1.2 2.793-0.295 4.060 1.106 1.548 3.299 1.699 4.581 0.314 0.683-0.738 0.985-1.683 0.838-2.621-0.29-1.858-2.031-3.047-3.759-2.568zM23.202 15.147c-1.477 0.409-2.444 1.955-2.194 3.509 0.273 1.696 1.873 2.889 3.468 2.585 1.665-0.317 2.78-1.899 2.512-3.564-0.296-1.843-2.046-3.012-3.786-2.53zM13.954 16.664c0.162 0.076 0.412 0.28 0.557 0.454 1.186 1.429-0.55 3.429-2.074 2.389-0.709-0.484-0.913-1.552-0.433-2.266 0.416-0.62 1.3-0.881 1.95-0.577zM24.702 16.712c0.518 0.266 0.894 0.857 0.893 1.405-0.001 0.886-0.766 1.697-1.599 1.697-0.338 0-0.82-0.22-1.102-0.504-0.774-0.779-0.589-2.061 0.372-2.578 0.503-0.271 0.936-0.277 1.437-0.020zM12.499 24.258c-0.385 0.397-0.308 0.842 0.217 1.253 0.846 0.662 2.37 1.345 3.673 1.646 0.648 0.15 0.952 0.174 2.168 0.174 1.561 0 2.335-0.125 3.486-0.562 1.051-0.4 2.398-1.177 2.681-1.549 0.204-0.267 0.187-0.632-0.042-0.913-0.288-0.353-0.65-0.322-1.299 0.113-1.471 0.984-3.070 1.47-4.83 1.467-1.765-0.003-3.352-0.486-4.819-1.467-0.606-0.406-0.953-0.452-1.234-0.163zM28.816 27.773c-0.271 0.28-0.312 0.521-0.143 0.857 0.184 0.366 0.622 0.482 0.986 0.26 0.641-0.39 0.352-1.371-0.403-1.371-0.122 0-0.282 0.093-0.439 0.254z"></path>
        </symbol>
        <symbol id="icon-support" viewBox="0 0 38 32">
            <path d="M20.518 0.341c-3.421 0.629-6.172 3.344-6.871 6.778-0.173 0.852-0.184 2.617-0.021 3.405 0.065 0.312 0.105 0.567 0.091 0.567s-0.219-0.124-0.455-0.275c-0.236-0.151-0.751-0.382-1.145-0.511-0.605-0.199-0.883-0.237-1.79-0.24-1.618-0.006-2.853 0.265-5.113 1.122-1.297 0.492-2.229 0.679-3.794 0.763-0.954 0.051-1.044 0.072-1.231 0.284-0.251 0.285-0.252 0.401-0.006 0.718l0.195 0.252 1.304-0.050c1.494-0.057 2.364-0.22 3.58-0.669 2.648-0.98 3.413-1.159 4.975-1.163 0.896-0.002 1.174 0.032 1.676 0.208 0.824 0.289 1.518 0.832 2.001 1.569 0.219 0.333 0.461 0.63 0.538 0.66s1.058 0.055 2.179 0.055c2.097 0 2.418 0.043 2.881 0.386 0.306 0.227 0.605 0.775 0.636 1.164l0.025 0.309-5.882 0.048-1.615-0.649c-1.76-0.707-1.964-0.73-2.194-0.243-0.12 0.254-0.017 0.65 0.192 0.742 0.055 0.024 0.803 0.332 1.662 0.685l1.562 0.642h13.382l0.135 0.195c0.143 0.207 0.074 0.468-0.145 0.553-0.063 0.024-2.506 0.426-5.429 0.892l-5.314 0.848-9.192-1.86-3.338 0.915c-1.836 0.503-3.446 0.957-3.577 1.009s-0.288 0.216-0.349 0.364c-0.096 0.235-0.087 0.302 0.068 0.514 0.098 0.134 0.277 0.256 0.397 0.27s1.707-0.386 3.527-0.891l3.309-0.918 9.164 1.852 5.534-0.881c6.175-0.983 6.11-0.966 6.465-1.71 0.408-0.855 0.117-1.762-0.699-2.173l-0.442-0.223 0.536-0.534c2.661-2.65 3.384-6.559 1.828-9.887-0.49-1.049-0.811-1.523-1.604-2.368-1.916-2.044-4.89-3.026-7.637-2.521zM24.113 1.747c5.031 1.62 6.858 7.637 3.586 11.813-0.524 0.669-1.431 1.425-2.204 1.836l-0.61 0.325-3.458-0.049-0.055-0.458c-0.112-0.93-0.688-1.8-1.482-2.238-0.583-0.322-1.327-0.432-2.922-0.432l-1.326-0.001-0.296-0.658c-0.459-1.021-0.629-1.856-0.624-3.061 0.006-1.233 0.168-1.972 0.677-3.084 0.954-2.084 2.823-3.617 5.043-4.134 0.835-0.195 2.87-0.116 3.67 0.141zM26.799 21.218c-1.504 0.245-2.786 0.966-3.554 1.996l-0.351 0.471-4.067 0.060-0.597 0.298c-0.966 0.482-1.681 1.514-1.681 2.426v0.314l-2.842 0.002c-2.933 0.002-3.443 0.051-3.887 0.372-0.515 0.371-0.752 1.23-0.516 1.865 0.132 0.355 0.6 0.824 0.928 0.931 0.151 0.049 2.731 0.483 5.733 0.963l5.458 0.874 9.148-1.852 3.348 0.928c3.597 0.997 3.686 1.009 3.915 0.526 0.138-0.293 0.012-0.643-0.28-0.774-0.105-0.047-1.715-0.506-3.577-1.020l-3.385-0.934-9.202 1.863-5.351-0.852c-5.755-0.916-5.841-0.937-5.551-1.38l0.129-0.197 13.585-0.091 1.477-0.619c0.812-0.34 1.553-0.693 1.645-0.785 0.339-0.335 0.099-1-0.361-1-0.116 0-0.864 0.265-1.662 0.59l-1.451 0.59h-6.152l0.063-0.295c0.111-0.523 0.393-0.969 0.774-1.224l0.372-0.25 2.29-0.045c1.259-0.025 2.341-0.079 2.403-0.12s0.197-0.242 0.3-0.446c0.242-0.48 0.912-1.138 1.472-1.445 0.76-0.416 1.477-0.555 2.59-0.503 1.31 0.061 2.484 0.336 4.163 0.974 1.645 0.625 2.486 0.803 4.137 0.877 1.317 0.059 1.439 0.029 1.599-0.4 0.11-0.294-0.066-0.632-0.391-0.747-0.148-0.052-0.641-0.095-1.095-0.095-1.047 0-2.204-0.204-3.176-0.559-1.967-0.719-2.528-0.896-3.402-1.075-0.923-0.189-2.47-0.298-2.999-0.212z"></path>
            <path d="M18.903 6.61c0.379-1.79 1.802-3.103 3.562-3.289 0.105-0.011 0.241-0.022 0.303-0.023l0.113-0.003v0.816l-0.161 0.015c-0.904 0.083-1.589 0.404-2.169 1.014-0.445 0.468-0.715 0.985-0.853 1.635-0.059 0.279-0.058 1.008 0.002 1.288 0.143 0.664 0.431 1.201 0.895 1.67 0.398 0.402 0.844 0.675 1.362 0.832 0.246 0.075 0.579 0.131 0.776 0.131l0.149 0v0.832l-0.282-0.017c-0.696-0.042-1.36-0.273-1.98-0.688-0.37-0.248-0.846-0.729-1.091-1.1-0.304-0.463-0.508-0.953-0.627-1.511-0.047-0.22-0.054-0.325-0.055-0.796-0.001-0.482 0.005-0.572 0.055-0.808z"></path>
            <path d="M21.229 5.611c0.418-0.396 0.94-0.621 1.533-0.661 0.059-0.004 0.145-0.004 0.19-0.001 0.332 0.026 0.427 0.041 0.612 0.095 0.97 0.285 1.667 1.153 1.755 2.187l0.016 0.187-0.823-0.013-0.015-0.173c-0.033-0.371-0.183-0.682-0.472-0.974-0.331-0.335-0.678-0.481-1.143-0.481-1.096 0-1.87 1.074-1.538 2.134 0.195 0.623 0.745 1.078 1.376 1.137l0.162 0.015v0.82l-0.199-0.014c-0.552-0.040-1.108-0.302-1.516-0.715-0.975-0.988-0.947-2.587 0.063-3.544z"></path>
            <path d="M18.455 11.023c-0.771-0.991-1.17-2.067-1.251-3.371l-0.015-0.236 0.824 0.013 0.016 0.313c0.029 0.587 0.2 1.244 0.472 1.815 0.567 1.19 1.581 2.1 2.812 2.523 0.465 0.16 0.731 0.21 1.407 0.269l0.161 0.014v0.822l-0.268-0.017c-1.44-0.089-2.727-0.665-3.722-1.665-0.158-0.159-0.355-0.376-0.437-0.482z"></path>
            <path d="M24.191 7.99c-0.002-0.080 0.020-0.161 0.049-0.181 0.068-0.046 3.137-0.036 3.137 0.010 0 0.019-0.281 0.3-0.624 0.625l-0.624 0.591h-2.478l-0.025 1.147-0.333 0.004v-1.512h2.67l0.263-0.232c0.145-0.127 0.263-0.248 0.263-0.269s-0.085-0.035-0.189-0.032c-0.104 0.003-0.62 0.002-1.147-0.001l-0.959-0.006-0.004-0.145z"></path>
            <path d="M24.226 10.213v-0.773h0.355v0.414l0.802-0.018c0.441-0.010 0.81-0.004 0.821 0.013s-0.262 0.296-0.604 0.621l-0.623 0.59h-1.327v1.627l0.574-0.524 0.003-0.697h0.355v0.843l-0.566 0.535c-0.311 0.294-0.601 0.563-0.644 0.597-0.074 0.058-0.078-0.012-0.078-1.339v-1.4h1.516l0.263-0.232c0.145-0.128 0.251-0.244 0.237-0.259s-0.264-0.020-0.555-0.011l-0.529 0.015z"></path>
        </symbol>
        <symbol id="icon-Telegram" viewBox="0 0 35 32">
            <path d="M32.491 0.121c-1.162 0.405-31.731 12.898-31.89 13.033-0.888 0.752-0.771 2.245 0.218 2.779 0.14 0.075 1.895 0.782 3.901 1.571s3.655 1.442 3.665 1.453c0.010 0.011 0.663 2.204 1.451 4.874s1.487 4.969 1.554 5.108c0.393 0.814 1.319 1.148 2.071 0.746 0.185-0.099 1.313-1.019 2.507-2.046s2.244-1.896 2.334-1.932c0.119-0.048 0.229-0.031 0.408 0.064 0.134 0.071 1.909 1.402 3.943 2.958s3.825 2.916 3.979 3.023c0.332 0.229 0.875 0.311 1.287 0.193 0.361-0.103 0.864-0.571 1.001-0.933 0.059-0.157 1.393-6.792 2.963-14.746 3.16-16.003 2.978-14.894 2.548-15.551-0.434-0.663-1.132-0.877-1.939-0.595zM33.29 1.664c0.024 0.278-5.583 28.68-5.689 28.814-0.044 0.056-0.103 0.102-0.13 0.102s-1.859-1.383-4.070-3.074c-4.359-3.334-4.383-3.349-5.126-3.268-0.192 0.021-0.484 0.106-0.65 0.19s-1.308 1.019-2.54 2.079c-1.232 1.060-2.255 1.927-2.273 1.927-0.146-0.003-0.373-0.696-1.688-5.149-0.818-2.77-1.523-5.119-1.567-5.219s-0.136-0.219-0.204-0.265c-0.068-0.045-1.86-0.763-3.982-1.595s-3.896-1.564-3.943-1.627c-0.070-0.093-0.066-0.134 0.019-0.224 0.124-0.131 31.573-12.94 31.721-12.92 0.060 0.008 0.109 0.102 0.12 0.228zM26.178 6.402c-0.689 0.374-14.457 9.366-14.677 9.585-0.376 0.375-0.602 0.883-0.64 1.44-0.029 0.429 0.032 0.703 0.804 3.571 0.894 3.321 0.941 3.441 1.42 3.65 0.272 0.119 0.752 0.055 1.002-0.132 0.327-0.245 0.414-0.555 0.631-2.243 0.265-2.066 0.314-2.241 0.76-2.728 0.195-0.213 2.96-2.935 6.143-6.048s5.817-5.74 5.853-5.838c0.319-0.884-0.507-1.684-1.296-1.256zM22.752 10.412c-0.111 0.113-1.989 1.949-4.172 4.079s-4.104 4.040-4.269 4.244c-0.462 0.572-0.666 1.119-0.803 2.156-0.065 0.492-0.136 0.895-0.156 0.895s-0.29-0.934-0.599-2.076c-0.6-2.22-0.614-2.345-0.307-2.65 0.144-0.143 10.382-6.839 10.475-6.852 0.018-0.002-0.058 0.089-0.17 0.202zM28.441 15.881c-0.222 0.197-0.361 0.615-0.361 1.082 0 0.581 0.732 0.914 1.117 0.508 0.327-0.344 0.414-1.194 0.155-1.511-0.232-0.284-0.64-0.32-0.911-0.080zM27.714 19.303c-0.211 0.227-0.236 0.328-1.011 4.093-0.437 2.123-0.794 3.984-0.794 4.134 0 0.605 0.708 0.927 1.108 0.506 0.097-0.102 0.191-0.239 0.209-0.304s0.39-1.857 0.827-3.983c0.874-4.255 0.877-4.284 0.483-4.538-0.323-0.207-0.566-0.18-0.82 0.092z"></path>
        </symbol>
        <symbol id="icon-Twitter" viewBox="0 0 36 32">
            <path d="M23.708 0.072c-1.668 0.207-3.405 1.152-4.629 2.518-0.643 0.718-0.973 1.229-1.399 2.168-0.539 1.186-0.738 2.074-0.786 3.497l-0.038 1.13-0.395-0.050c-0.405-0.051-1.894-0.345-2.65-0.522-0.679-0.16-1.014 0.060-1.035 0.68-0.016 0.458 0.253 0.663 1.186 0.905 1.101 0.285 2.534 0.509 3.385 0.528 0.734 0.016 0.737 0.016 0.914-0.207 0.162-0.204 0.174-0.266 0.135-0.687-0.107-1.147-0.124-2.099-0.047-2.639 0.182-1.271 0.777-2.608 1.586-3.568 1.383-1.639 3.5-2.513 5.435-2.241 1.446 0.203 2.496 0.718 3.586 1.76 0.271 0.259 0.564 0.509 0.652 0.554 0.222 0.116 0.912-0.036 2.13-0.471 0.543-0.194 0.987-0.331 0.987-0.304 0 0.12-0.872 1.061-1.268 1.369-0.731 0.568-0.838 0.682-0.884 0.949-0.050 0.29 0.103 0.68 0.317 0.804 0.21 0.122 0.671 0.092 1.536-0.098l0.793-0.174-0.3 0.336c-0.165 0.185-0.608 0.608-0.986 0.941s-0.718 0.671-0.757 0.751c-0.039 0.080-0.072 0.568-0.073 1.085-0.011 9.536-5.512 17.837-13.576 20.487-2.833 0.931-5.931 1.167-8.942 0.683-1.401-0.225-3.47-0.862-4.561-1.403l-0.428-0.212 0.423-0.054c2.349-0.299 4.72-1.231 6.62-2.602 1.107-0.799 1.235-0.937 1.235-1.334 0-0.248-0.044-0.367-0.199-0.535-0.167-0.18-0.278-0.224-0.687-0.264-1.23-0.123-2.51-0.613-3.372-1.29-0.555-0.436-1.22-1.185-1.603-1.805l-0.354-0.574 0.73-0.048c1.523-0.099 2.053-0.353 2.053-0.983 0-0.461-0.189-0.615-1.157-0.949-1.107-0.381-1.813-0.854-2.631-1.761-0.655-0.726-1.067-1.393-1.395-2.253-0.174-0.458-0.423-1.377-0.383-1.419 0.009-0.010 0.302 0.066 0.651 0.168s0.941 0.207 1.316 0.234l0.682 0.047 0.216-0.234c0.173-0.188 0.216-0.299 0.216-0.556 0-0.349-0.014-0.366-0.845-1.081-0.886-0.762-1.727-2.195-2.059-3.509-0.135-0.535-0.16-0.822-0.159-1.819 0.001-1.010 0.026-1.276 0.167-1.817l0.166-0.633 0.784 0.828c0.907 0.957 1.801 1.775 2.649 2.423 0.735 0.561 1.020 0.605 1.347 0.208 0.404-0.49 0.256-0.844-0.649-1.549-1.131-0.881-2.276-2.014-3.445-3.411-0.495-0.591-0.545-0.63-0.809-0.628-0.159 0.001-0.348 0.060-0.433 0.134-0.171 0.149-0.61 1.064-0.813 1.697-0.54 1.682-0.546 3.904-0.014 5.51 0.221 0.666 0.6 1.504 0.885 1.954 0.113 0.178 0.187 0.324 0.164 0.324s-0.166-0.069-0.318-0.153c-0.407-0.225-0.741-0.201-0.992 0.070-0.188 0.204-0.206 0.269-0.206 0.75 0 1.174 0.37 2.705 0.928 3.837 0.419 0.849 0.908 1.523 1.663 2.291 0.609 0.619 0.656 0.686 0.483 0.686-0.226 0-0.512 0.282-0.579 0.569-0.092 0.399 0.581 1.988 1.23 2.905 0.932 1.316 2.356 2.441 3.672 2.901 0.213 0.074 0.414 0.152 0.447 0.172 0.195 0.121-1.983 1.157-3.179 1.513-1.432 0.426-2.162 0.521-4.045 0.526-1.642 0.004-1.674 0.007-1.832 0.178-0.187 0.203-0.223 0.752-0.063 0.961 0.054 0.070 0.434 0.347 0.845 0.614 2.483 1.615 5.286 2.623 8.426 3.031 0.923 0.12 3.684 0.121 4.579 0.002 3.594-0.478 6.442-1.56 9.1-3.458 5.646-4.032 9.174-10.952 9.44-18.522l0.044-1.241 0.241-0.2c0.82-0.678 2.028-2.055 2.806-3.198 0.356-0.523 0.416-0.658 0.416-0.942 0.001-0.269-0.037-0.366-0.197-0.515-0.275-0.257-0.581-0.236-1.332 0.089-0.347 0.151-0.642 0.262-0.655 0.247s0.105-0.232 0.263-0.484c0.431-0.687 0.919-1.847 0.957-2.273 0.029-0.326 0.010-0.396-0.166-0.594-0.293-0.332-0.599-0.305-1.318 0.114-0.874 0.51-1.615 0.842-2.573 1.155l-0.865 0.282-0.332-0.303c-1.226-1.116-2.714-1.815-4.265-2.002-0.757-0.091-1.045-0.091-1.808 0.004zM10.132 7.524c-0.237 0.047-0.513 0.448-0.513 0.746 0 0.183 0.061 0.322 0.217 0.49 0.64 0.693 1.618-0.265 0.998-0.978-0.199-0.229-0.427-0.313-0.702-0.258zM25.675 18.687c-0.15 0.163-0.206 0.296-0.206 0.495 0 0.647 0.749 0.997 1.166 0.545 0.406-0.44 0.082-1.263-0.496-1.263-0.191 0-0.311 0.058-0.463 0.223zM24.307 20.818c-0.116 0.077-0.327 0.292-0.468 0.477-0.778 1.022-2.135 2.296-3.38 3.172-0.908 0.639-0.978 0.718-0.978 1.103 0 0.412 0.298 0.758 0.652 0.758 0.54 0 2.492-1.522 3.901-3.041 1.411-1.522 1.583-1.903 1.081-2.399-0.249-0.246-0.509-0.268-0.809-0.069z"></path>
        </symbol>
        <symbol id="icon-arrow" viewBox="0 0 63 32">
            <path d="M31.333 32l31.333-32h-62.667l31.333 32z"></path>
        </symbol>
        <symbol id="icon-main-shadow" viewBox="0 0 7 32">
            <path d="M4.315 24.151c-0.542 0.107 4.452 4.059 4.947 3.521 0.618-0.671 0.59-12.044 0.978-13.367 0.374-1.278 0.020-3.061-0.16-4.558-0.16-1.337-0.456-2.502-0.818-3.595-0.378-1.141-0.73-1.611-1.335-1.826-0.608-0.216-1.053 0.258-1.628 0.774-0.516 0.462-1.245-0.036-1.562 1.035-0.323 1.094 0.125 2.586 0.096 3.92-0.025 1.161 0.403 1.303 0.603 2.364s-0.017 2.084 0.372 2.791c0.439 0.797-0.943 8.832-1.494 8.94z"></path>
        </symbol>
        <symbol id="icon-journey_shadow_left" viewBox="0 0 32 32">
            <path d="M1.794 20.406c0.651 0.074-3.281 3.404-3.875 3.032-0.741-0.465-0.267-3.697-0.732-4.614-0.449-0.885 0.958-0.916 1.173-1.953 0.192-0.926 0.368-1.72 0.803-2.477 0.454-0.791 0.633-0.916 1.359-1.065 0.73-0.15 1.746-3.192 2.436-2.835 0.619 0.32 17.549-2.581 17.929-1.838 0.388 0.758 4.765 0.939 4.799 1.863 0.030 0.805-4.372 2.449-4.613 3.184s-10.513 2.678-10.98 3.168c-0.526 0.552-8.959 3.46-8.299 3.535z"></path>
        </symbol>
        <symbol id="icon-journey_shadow_right" viewBox="0 0 27 32">
            <path d="M14.122 16.902c0.514 0.454-4.86 0.95-5.146 0.273-0.357-0.844 1.992-3.333 2.144-4.399 0.146-1.029 1.372-0.211 2.18-0.971 0.722-0.679 1.35-1.255 2.177-1.643 0.864-0.406 1.093-0.406 1.805-0.098 0.716 0.31 3.416-1.69 3.794-0.969 0.339 0.647 16.608 8.329 16.488 9.194-0.122 0.883 3.524 3.668 2.998 4.482-0.458 0.708-5.223-0.525-5.871-0.039s-10.63-4.018-11.324-3.879c-0.783 0.157-9.767-2.414-9.245-1.953z"></path>
        </symbol>
        <symbol id="icon-main-shadow-desk" viewBox="0 0 21 32">
            <path d="M15.857 17.955c-1.119 0.093 5.642 4.272 6.663 3.805 1.274-0.583-1.334-7.091-0.534-8.242 0.772-1.111 0.040-2.662-0.33-3.963-0.331-1.162-0.941-2.175-1.688-3.125-0.78-0.992-1.506-1.4-2.754-1.587-1.255-0.188-2.171 0.225-3.358 0.673-1.065 0.402-2.568-0.032-3.221 0.9-0.667 0.951 0.257 2.248 0.198 3.409-0.051 1.010-0.933 2.004-0.519 2.926s1.727 0.942 2.53 1.556c0.905 0.693 4.149 3.555 3.013 3.649z"></path>
        </symbol>
        <symbol id="icon-journey_shadow_desk" viewBox="0 0 25 32">
            <path d="M4.74 19.763c0.906 0.075-4.568 3.451-5.395 3.073-1.032-0.471 1.080-5.728 0.433-6.657-0.625-0.897-0.033-2.15 0.267-3.201 0.268-0.939 0.762-1.757 1.366-2.524 0.632-0.802 1.219-1.131 2.23-1.282 1.016-0.152 1.758 0.181 2.719 0.543 0.862 0.325 2.079-0.025 2.608 0.727 0.54 0.768 6.634 0.952 6.682 1.889 0.041 0.816-6.087 2.483-6.422 3.228s-1.399 0.761-2.048 1.257c-0.733 0.559-3.359 2.871-2.439 2.947z"></path>
        </symbol>
        <symbol id="icon-faq-shadow-desk" viewBox="0 0 17 32">
            <path d="M14.818 19.763c0.906 0.075-4.568 3.451-5.395 3.073-1.031-0.471 1.080-5.728 0.433-6.657-0.625-0.897-0.033-2.15 0.267-3.201 0.268-0.939 0.762-1.757 1.366-2.524 0.632-0.802 1.219-1.131 2.23-1.282 1.016-0.152 1.758 0.181 2.719 0.543 0.862 0.325 2.079-0.025 2.608 0.727 0.54 0.768-0.208 1.816-0.16 2.753 0.041 0.816 0.755 1.618 0.42 2.364s-1.399 0.761-2.048 1.257c-0.733 0.559-3.359 2.871-2.439 2.948z"></path>
        </symbol>
    </defs>
</svg>