<!-- Generated by IcoMoon.io -->
<svg version="1.1" xmlns="http://www.w3.org/2000/svg" width="32" height="32" viewBox="0 0 32 32">
<path d="M2.783 0.073c0.172-0.032 0.629-0.062 1.015-0.066l0.21-0.002c0.272-0.003 0.493 0.217 0.493 0.488 0 0.275-0.218 0.5-0.493 0.508l-0.311 0.010c-0.778 0.024-0.819 0.033-1.272 0.257-0.564 0.279-0.919 0.643-1.194 1.223-0.13 0.275-0.198 0.576-0.198 0.88v25.23c0 0.347 0.080 0.689 0.233 1 0.281 0.569 0.643 0.924 1.223 1.2 0.275 0.13 0.575 0.198 0.879 0.198h25.248c0.304 0 0.604-0.068 0.879-0.198 0.579-0.275 0.942-0.63 1.221-1.195 0.224-0.454 0.232-0.494 0.256-1.274l0.009-0.305c0.009-0.279 0.237-0.5 0.516-0.5 0.273 0 0.492 0.227 0.482 0.5l-0.014 0.36c-0.037 0.988-0.149 1.395-0.553 2.022-0.462 0.715-1.072 1.182-1.929 1.474-0.331 0.113-0.807 0.117-13.492 0.117s-13.16-0.004-13.492-0.117c-1.266-0.432-2.214-1.481-2.432-2.694-0.094-0.52-0.094-25.826 0-26.346 0.183-1.015 0.947-2.009 1.897-2.468 0.277-0.134 0.644-0.269 0.815-0.302zM5.5 0.5c0-0.276 0.224-0.5 0.5-0.5s0.5 0.225 0.5 0.5c0 0.276-0.224 0.5-0.5 0.5s-0.5-0.225-0.5-0.5zM7.499 0.5c0-0.276 0.224-0.5 0.5-0.5h10.147c7.588 0 10.742 0.020 10.978 0.070 1.385 0.292 2.248 1.372 2.691 3.371 0.131 0.591 0.132 0.665 0.152 11.84l0.019 10.744c0 0.277-0.224 0.501-0.5 0.501s-0.501-0.224-0.501-0.501l-0-10.337c-0-6.887-0.024-11.044-0.064-11.402-0.181-1.61-0.712-2.667-1.547-3.078-0.235-0.115-0.493-0.176-0.755-0.176l-20.621-0.031c-0.276-0-0.5-0.224-0.5-0.501zM12.871 5.549c0.189-0.011 0.675-0.026 1.080-0.032 0.706-0.011 0.743-0.005 0.89 0.142 0.182 0.182 0.201 0.463 0.044 0.654-0.072 0.088-0.31 0.187-0.703 0.291-0.326 0.087-0.861 0.266-1.189 0.397-0.655 0.263-1.306 0.595-1.060 0.539 1.747-0.391 2.594-0.498 3.935-0.495 1.154 0.002 2.123 0.105 3.494 0.371 0.427 0.083 0.786 0.142 0.797 0.131 0.029-0.029-0.881-0.448-1.386-0.638-0.24-0.090-0.69-0.231-0.999-0.314-0.367-0.098-0.6-0.196-0.672-0.283-0.157-0.191-0.138-0.472 0.044-0.654 0.14-0.14 0.202-0.154 0.703-0.153 2.353 0.003 5.724 0.528 6.803 1.061 0.616 0.304 1.169 0.86 1.483 1.491 0.468 0.941 1.37 4.961 1.82 8.114 0.235 1.644 0.411 3.235 0.364 3.284-0.030 0.031-0.909 0.115-0.945 0.090-0.010-0.007-0.059-0.403-0.109-0.881-0.289-2.788-0.784-5.568-1.498-8.423-0.384-1.535-0.439-1.689-0.75-2.114-0.48-0.655-1.15-0.929-3.045-1.247-1.078-0.181-1.181-0.159-0.678 0.14 0.544 0.324 1.268 0.877 1.773 1.352 0.355 0.334 0.423 0.432 0.423 0.603 0 0.291-0.18 0.49-0.443 0.489-0.117-0.001-0.62-0.144-1.118-0.319-1.617-0.568-3.333-0.932-5.106-1.081-1.863-0.157-4.405 0.242-6.605 1.038-1.212 0.438-1.258 0.449-1.455 0.339s-0.297-0.352-0.24-0.579c0.055-0.22 0.953-0.993 1.87-1.611 0.847-0.571 0.842-0.576-0.371-0.372-1.333 0.224-2.055 0.429-2.461 0.701-0.331 0.221-0.675 0.608-0.862 0.966-0.038 0.073-0.156 0.453-0.262 0.843s-0.199 0.716-0.207 0.724c-0.018 0.018-0.92-0.212-0.944-0.241-0.043-0.052 0.414-1.543 0.569-1.857 0.248-0.502 1.003-1.241 1.521-1.49 0.806-0.386 3.417-0.851 5.495-0.977zM4.913 11.353c0.060-0.257 0.112-0.467 0.114-0.466 0.556 0.142 0.926 0.244 0.941 0.26 0.036 0.036-0.193 0.933-0.239 0.937-0.131 0.011-0.861-0.158-0.891-0.207-0.019-0.032 0.014-0.268 0.075-0.525zM4.563 12.966c0-0.034 0.222-0.012 0.606 0.058 0.359 0.066 0.398 0.088 0.369 0.203-0.094 0.377-0.427 2.356-0.566 3.359-0.287 2.078-0.521 4.888-0.45 5.405 0.097 0.711 0.591 1.461 1.196 1.815 0.775 0.455 3.849 1.241 5.841 1.494 1.233 0.157 2.009 0.207 2.036 0.132 0.036-0.1 0.275-1.289 0.275-1.37-0-0.042-0.275-0.116-0.674-0.181-0.837-0.136-1.737-0.414-2.51-0.775-0.709-0.332-1.833-1.074-2.329-1.539-0.294-0.275-0.359-0.373-0.359-0.539 0-0.238 0.236-0.509 0.442-0.509 0.074 0 0.524 0.125 0.998 0.278 2.333 0.752 4.858 1.223 6.564 1.223 1.675 0 4.201-0.471 6.518-1.217 0.481-0.155 0.939-0.282 1.018-0.283 0.212-0.002 0.45 0.266 0.45 0.508 0 0.16-0.061 0.259-0.295 0.477-1.33 1.24-3.218 2.138-5.056 2.404-0.398 0.058-0.52 0.098-0.518 0.172 0.001 0.053 0.064 0.391 0.141 0.751l0.067 0.318c0.041 0.194 0.217 0.33 0.415 0.32 1.704-0.079 4.193-0.544 6.139-1.145 1.213-0.375 1.512-0.529 1.949-1.002 0.515-0.557 0.624-0.895 0.625-1.929l0-0.364c0-0.271 0.21-0.495 0.48-0.512 0.266-0.017 0.498 0.182 0.52 0.448l0.004 0.048c0.115 1.388-0.23 2.409-1.087 3.212-0.548 0.514-1.159 0.777-2.995 1.294-1.888 0.531-4.87 1.005-6.319 1.005-0.45 0-0.485-0.071-0.79-1.594-0.151-0.754-0.275-1.418-0.275-1.476s0.051-0.169 0.114-0.247c0.098-0.121 0.219-0.153 0.849-0.226 0.713-0.082 1.883-0.321 1.83-0.374-0.014-0.014-0.22 0.014-0.457 0.063-1.069 0.221-2.066 0.316-3.335 0.316s-2.267-0.094-3.335-0.316c-0.237-0.049-0.443-0.077-0.457-0.063-0.053 0.053 1.117 0.292 1.83 0.374 0.63 0.072 0.752 0.105 0.849 0.226 0.063 0.078 0.114 0.189 0.114 0.247s-0.124 0.723-0.275 1.476c-0.306 1.523-0.341 1.594-0.79 1.594-0.851 0-3.007-0.265-4.369-0.536-1.566-0.312-3.784-0.98-4.352-1.31-0.46-0.267-1.082-0.936-1.317-1.414-0.37-0.754-0.423-1.159-0.336-2.558 0.139-2.233 0.415-4.491 0.824-6.725 0.101-0.551 0.183-1.008 0.183-1.017zM10.254 13.612c-1.584 0.427-2.564 2.069-2.16 3.621 0.387 1.487 1.817 2.459 3.303 2.244 1.329-0.192 2.364-1.225 2.554-2.549 0.299-2.081-1.682-3.859-3.697-3.316zM20.248 13.612c-1.584 0.427-2.564 2.069-2.16 3.621 0.387 1.487 1.817 2.459 3.303 2.244 1.329-0.192 2.364-1.225 2.554-2.549 0.299-2.081-1.682-3.859-3.697-3.316zM11.815 14.697c0.432 0.204 0.702 0.461 0.934 0.892 0.194 0.361 0.213 0.442 0.214 0.928 0.001 0.493-0.015 0.561-0.222 0.938-0.961 1.749-3.567 1.194-3.728-0.794-0.073-0.901 0.473-1.722 1.36-2.046 0.372-0.136 1.063-0.097 1.442 0.082zM21.809 14.697c0.432 0.204 0.702 0.461 0.934 0.892 0.194 0.361 0.213 0.442 0.214 0.928 0.001 0.493-0.015 0.561-0.222 0.938-0.961 1.749-3.567 1.194-3.728-0.794-0.073-0.901 0.473-1.722 1.36-2.046 0.372-0.136 1.063-0.097 1.442 0.082z"></path>
</svg>
