<!-- Generated by IcoMoon.io -->
<svg version="1.1" xmlns="http://www.w3.org/2000/svg" width="37" height="32" viewBox="0 0 37 32">
<path stroke-linejoin="miter" stroke-linecap="butt" stroke-miterlimit="4" stroke-width="0.8205" stroke="#000" fill="#000" d="M11.011 9.608v9.608h4.454l0.133 0.296c0.073 0.163 0.226 0.424 0.34 0.581l0.206 0.286-0.379 0.768c-0.208 0.423-0.364 0.782-0.347 0.798 0.062 0.058 1.771 0.9 1.826 0.9 0.031 0 0.223-0.336 0.427-0.747l0.371-0.747h0.821l0.371 0.747c0.204 0.411 0.404 0.747 0.444 0.747 0.067 0 1.77-0.832 1.843-0.9 0.018-0.016-0.139-0.376-0.347-0.799l-0.379-0.769 0.245-0.356c0.134-0.196 0.286-0.457 0.338-0.581l0.093-0.225h4.459v-19.215h-14.919v9.608zM23.8 9.608v7.473l-2.309-0.001-0.239-0.462c-0.269-0.522-0.824-1.074-1.322-1.315-0.969-0.47-1.954-0.467-2.927 0.008-0.461 0.225-1.16 0.935-1.375 1.396l-0.174 0.374h-2.311v-14.945h10.657v7.473zM15.274 5.338v1.068h6.394v-2.135h-6.394v1.067zM1.24 4.75c-0.239 0.574-0.599 1.72-0.721 2.295-0.189 0.893-0.173 2.28 0.035 3.010 0.168 0.592 0.525 1.351 0.827 1.758 0.586 0.791 1.687 1.681 2.722 2.199 0.407 0.204 0.444 0.242 0.445 0.453 0.001 0.219 0.144 1.37 0.253 2.038 0.050 0.307 0.048 0.312-0.125 0.269-0.555-0.14-1.604-0.195-2.32-0.122-0.722 0.073-1.968 0.302-2.039 0.374-0.068 0.068 0.271 1.821 0.48 2.476 0.792 2.49 2.355 3.921 4.745 4.346 0.254 0.045 0.914 0.080 1.467 0.078l1.005-0.004 0.581 0.666c0.32 0.366 0.773 0.834 1.008 1.039l0.427 0.372-0.628 0.328c-0.346 0.18-0.75 0.411-0.898 0.514-0.478 0.33-1.354 1.112-1.744 1.556l-0.379 0.432 0.556 0.572c2.909 2.994 5.936 3.407 8.944 1.219l0.572-0.416 2.014 1.108 0.872-0.471c0.479-0.259 0.933-0.509 1.009-0.555 0.118-0.072 0.217-0.026 0.71 0.331 0.722 0.522 1.686 1.003 2.421 1.21 0.734 0.206 1.958 0.22 2.7 0.032 0.667-0.17 1.806-0.734 2.413-1.196 0.546-0.415 1.785-1.577 1.889-1.772 0.053-0.1-0.065-0.256-0.63-0.828-0.798-0.809-1.412-1.27-2.308-1.735l-0.631-0.327 0.427-0.372c0.235-0.205 0.689-0.672 1.009-1.039l0.581-0.666 1.005 0.004c0.553 0.002 1.213-0.033 1.467-0.078 2.889-0.513 4.506-2.401 5.12-5.978 0.107-0.625 0.12-0.826 0.054-0.867-0.047-0.029-0.455-0.124-0.907-0.212-0.932-0.18-2.384-0.216-3.089-0.077-0.231 0.046-0.434 0.070-0.45 0.054s0.020-0.344 0.080-0.729c0.060-0.385 0.131-0.95 0.158-1.255l0.049-0.556 0.434-0.217c1.317-0.659 2.546-1.78 3.080-2.809 0.733-1.412 0.836-2.891 0.332-4.776-0.183-0.684-0.575-1.787-0.675-1.897-0.080-0.088-1.434 0.391-2.222 0.788-1.231 0.619-2.118 1.36-2.711 2.265-0.948 1.446-1.133 3.434-0.517 5.551 0.243 0.835 0.107 2.322-0.384 4.19-0.191 0.726-0.263 0.892-0.507 1.174-0.702 0.811-1.257 1.9-1.578 3.097-0.093 0.348-0.259 0.765-0.367 0.925-0.33 0.488-1.928 2.042-2.707 2.634-0.557 0.423-0.83 0.582-1.137 0.66-0.568 0.146-1.734 0.721-2.322 1.146-0.274 0.197-0.74 0.58-1.036 0.85-0.312 0.285-0.767 0.609-1.083 0.771l-0.545 0.28-0.547-0.281c-0.323-0.166-0.767-0.483-1.083-0.774-0.295-0.271-0.76-0.653-1.034-0.849-0.607-0.435-1.786-1.017-2.289-1.13-0.282-0.064-0.556-0.221-1.137-0.655-0.793-0.591-2.393-2.141-2.739-2.652-0.109-0.16-0.274-0.577-0.367-0.925-0.317-1.184-0.909-2.351-1.558-3.070-0.303-0.336-0.352-0.458-0.616-1.542-0.402-1.647-0.521-3.095-0.312-3.779 0.338-1.101 0.461-2.409 0.32-3.386-0.284-1.956-1.445-3.452-3.478-4.479-0.615-0.31-1.998-0.854-2.175-0.854-0.058 0-0.155 0.12-0.216 0.267zM3.381 7.656c0.893 0.632 1.418 1.387 1.595 2.295 0.092 0.47 0.059 1.62-0.055 1.922-0.062 0.165-0.065 0.164-0.603-0.197-1.022-0.685-1.593-1.5-1.765-2.518-0.080-0.476-0.061-1.206 0.046-1.737 0.054-0.269 0.082-0.261 0.782 0.234zM34.426 8.184c0.107 1.484-0.468 2.598-1.802 3.492-0.538 0.361-0.541 0.361-0.603 0.197-0.114-0.302-0.147-1.452-0.055-1.922 0.187-0.957 0.758-1.737 1.767-2.413l0.541-0.362 0.054 0.202c0.030 0.111 0.074 0.474 0.098 0.807zM15.274 9.608v1.068h6.394v-2.135h-6.394v1.068zM18.954 17.215c0.308 0.157 0.583 0.597 0.583 0.933 0 0.328-0.257 0.741-0.569 0.917-0.147 0.083-0.371 0.151-0.497 0.151-0.523 0-1.069-0.553-1.063-1.077 0.004-0.344 0.216-0.695 0.536-0.889 0.336-0.204 0.656-0.214 1.009-0.034zM3.742 18.79c1.125 0.141 1.903 0.538 2.477 1.262 0.327 0.412 0.763 1.233 0.855 1.608l0.050 0.203-0.56-0.049c-1.781-0.156-2.708-0.734-3.39-2.117-0.179-0.363-0.345-0.732-0.369-0.82-0.052-0.191 0.043-0.2 0.937-0.088zM34.138 18.877c-0.024 0.088-0.19 0.457-0.369 0.82-0.682 1.383-1.608 1.961-3.39 2.117l-0.56 0.049 0.049-0.203c0.088-0.361 0.529-1.188 0.857-1.606 0.665-0.848 1.702-1.285 3.15-1.328 0.285-0.008 0.304 0.002 0.263 0.151zM12.89 27.864c0.428 0.112 1.36 0.567 1.674 0.819 0.201 0.161 0.245 0.109-0.487 0.565-1.335 0.831-2.675 0.82-4.051-0.031-0.664-0.411-0.627-0.365-0.432-0.528 0.282-0.236 1.229-0.709 1.64-0.82 0.504-0.136 1.143-0.137 1.655-0.003zM25.678 27.864c0.428 0.112 1.36 0.567 1.674 0.819 0.201 0.161 0.245 0.109-0.487 0.565-1.315 0.818-2.684 0.818-3.999 0-0.732-0.455-0.688-0.404-0.487-0.565 0.299-0.24 1.241-0.707 1.644-0.815 0.504-0.136 1.143-0.137 1.655-0.003z"></path>
</svg>
