<!-- Generated by IcoMoon.io -->
<svg version="1.1" xmlns="http://www.w3.org/2000/svg" width="158" height="32" viewBox="0 0 158 32">
<path opacity="0.2" fill="#000" d="M0 0h157.895v32h-157.895v-32z"></path>
<path d="M5.104 11.029h10.332l0.761-0.923h-11.986l0.893 0.923zM6.225 12.353l2.368 0.009 0.059 1.446 0.809-1.002c0.445-0.551 0.892-1.107 0.993-1.236l0.184-0.234h-5.29l0.876 1.017zM10.877 12.817c-0.703 0.878-0.656 0.573-0.655 4.238 0.001 1.834 0.034 3.384 0.075 3.444s0.359 0.305 0.706 0.542l0.632 0.432v-8.010l2.781-0 0.871-1.026h-4.107l-0.303 0.379zM8.698 14.402l0.027 1.979 0.027 3.154 0.58 0.404c0.319 0.223 0.604 0.38 0.634 0.351s0.041-2.628 0.026-4.337l-0.027-3.108-1.269 1.556z"></path>
<path d="M19.285 13.588h3.033v0.643h-2.297v1.39h1.993v0.643h-1.993v1.871h-0.736v-4.547z"></path>
<path d="M22.828 14.205v-0.377l0.26-0.26h0.387l0.26 0.26v0.377l-0.26 0.26h-0.387l-0.26-0.26zM22.923 14.9h0.717v3.235h-0.717v-3.235z"></path>
<path d="M24.527 14.9h0.666v0.591l0.577-0.591h1.003l0.666 0.682v2.553h-0.717v-2.352l-0.247-0.253h-0.571l-0.66 0.682v1.923h-0.717v-3.235z"></path>
<path d="M28.201 14.205v-0.377l0.26-0.26h0.387l0.26 0.26v0.377l-0.26 0.26h-0.387l-0.26-0.26zM28.296 14.9h0.717v3.235h-0.717v-3.235z"></path>
<path d="M30.185 17.492v-1.968h-0.571v-0.624h0.584v-1.052h0.704v1.052h0.971v0.624h-0.971v1.734l0.247 0.253h0.723v0.624h-1.060l-0.628-0.643z"></path>
<path d="M35.334 14.9v4.002l-0.654 0.663h-1.612l-0.558-0.565v-0.429h0.717v0.214l0.152 0.162h0.99l0.247-0.26v-1.104l-0.533 0.552h-1.022l-0.647-0.669v-2.566h0.717v2.352l0.247 0.253h0.577l0.66-0.702v-1.903h0.717z"></path>
<path d="M38.872 14.231h-1.333v-0.643h3.401v0.643h-1.333v3.904h-0.736v-3.904z"></path>
<path d="M40.848 17.485v-1.936l0.628-0.65h1.751l0.635 0.65v1.936l-0.635 0.65h-1.751l-0.628-0.65zM42.891 17.518l0.254-0.26v-1.481l-0.254-0.26h-1.072l-0.254 0.26v1.481l0.254 0.26h1.072z"></path>
<path d="M44.592 17.479v-2.579h0.717v2.352l0.247 0.253h0.552l0.672-0.689v-1.916h0.717v3.235h-0.666v-0.598l-0.59 0.598h-1.009l-0.641-0.656z"></path>
<path d="M48.259 17.492v-1.949l0.622-0.643h1.669l0.628 0.65v0.533h-0.717v-0.299l-0.254-0.253h-0.977l-0.253 0.253v1.468l0.253 0.253h0.977l0.254-0.253v-0.299h0.717v0.533l-0.628 0.65h-1.669l-0.622-0.643z"></path>
<path d="M51.811 13.497h0.717v1.962l0.546-0.559h0.997l0.666 0.682v2.553h-0.717v-2.352l-0.248-0.253h-0.584l-0.66 0.682v1.923h-0.717v-4.638z"></path>
<path fill="none" stroke-linejoin="miter" stroke-linecap="butt" stroke-miterlimit="4" stroke-width="0.8421" stroke="#000" d="M138.947 12.211h12.632M138.947 15.579h12.632M138.947 18.947h12.632"></path>
</svg>
