<!-- Generated by IcoMoon.io -->
<svg version="1.1" xmlns="http://www.w3.org/2000/svg" width="32" height="32" viewBox="0 0 32 32">
<path d="M8.313 0.061c-3.126 0.349-5.905 2.308-7.341 5.175-0.46 0.919-0.785 2.049-0.905 3.146-0.090 0.829-0.090 14.397 0 15.226 0.479 4.404 3.919 7.845 8.321 8.324 0.829 0.090 14.393 0.090 15.222 0 2.145-0.233 4.020-1.122 5.568-2.64 1.57-1.539 2.515-3.49 2.754-5.684 0.090-0.829 0.090-14.397 0-15.226-0.233-2.146-1.122-4.021-2.639-5.569-1.539-1.57-3.489-2.516-5.682-2.755-0.73-0.079-14.584-0.077-15.298 0.003zM24.185 1.392c1.27 0.304 2.298 0.762 3.257 1.453 1.273 0.917 2.416 2.499 2.889 4.001 0.407 1.291 0.386 0.786 0.386 9.15 0 7.088-0.008 7.63-0.113 8.119-0.167 0.774-0.402 1.477-0.682 2.040-1.171 2.348-3.172 3.882-5.806 4.45-0.488 0.105-1.031 0.113-8.116 0.113s-7.628-0.008-8.116-0.113c-1.743-0.376-3.196-1.164-4.34-2.353-1.090-1.133-1.792-2.484-2.148-4.137-0.105-0.489-0.113-1.031-0.113-8.119s0.008-7.63 0.113-8.119c0.356-1.653 1.058-3.004 2.148-4.137 1.258-1.308 3.009-2.191 4.809-2.427 0.238-0.031 3.758-0.051 7.897-0.044 6.932 0.011 7.502 0.020 7.936 0.124zM8.302 2.837c-1.316 0.222-2.494 0.812-3.473 1.742-1.073 1.020-1.747 2.295-1.986 3.759-0.136 0.837-0.136 14.479 0 15.315 0.396 2.427 2.089 4.445 4.383 5.223 0.962 0.326 1.442 0.372 3.913 0.372l2.233 0 0.203-0.181c0.273-0.244 0.287-0.61 0.031-0.866l-0.172-0.172-4.966-0.070-0.562-0.172c-1.819-0.556-3.127-1.863-3.699-3.696l-0.176-0.563v-15.065l0.176-0.563c0.572-1.832 1.868-3.128 3.699-3.7l0.562-0.176h15.061l0.562 0.176c1.831 0.572 3.128 1.868 3.699 3.7l0.176 0.563v15.065l-0.176 0.563c-0.572 1.833-1.879 3.14-3.699 3.697l-0.562 0.172-2.344 0.020c-1.289 0.011-2.409 0.035-2.489 0.053s-0.214 0.106-0.297 0.196c-0.269 0.29-0.168 0.76 0.204 0.95 0.218 0.112 4.341 0.093 5.050-0.022 2.843-0.464 5.038-2.659 5.501-5.503 0.136-0.837 0.136-14.479 0-15.315-0.463-2.844-2.658-5.039-5.501-5.503-0.778-0.127-14.599-0.126-15.354 0.001zM23.456 5.544c-1.662 0.59-2.152 2.677-0.918 3.911 1.165 1.165 3.11 0.804 3.829-0.711 0.14-0.296 0.163-0.427 0.163-0.938 0-0.535-0.019-0.634-0.193-1-0.395-0.831-1.149-1.329-2.056-1.36-0.363-0.013-0.589 0.014-0.825 0.098zM24.642 6.767c0.997 0.427 0.825 1.91-0.247 2.131-0.686 0.141-1.441-0.614-1.3-1.301 0.063-0.304 0.316-0.65 0.576-0.787 0.276-0.146 0.688-0.164 0.971-0.043zM15.25 7.413c-1.23 0.097-3.234 0.764-3.438 1.145-0.142 0.265-0.093 0.572 0.12 0.763 0.251 0.225 0.402 0.219 1.024-0.036 1.227-0.504 1.811-0.624 3.043-0.629 0.912-0.003 1.555 0.088 2.243 0.318 2.562 0.856 4.42 2.938 4.985 5.585 0.155 0.726 0.155 2.146 0.001 2.868-0.631 2.96-2.838 5.169-5.791 5.799-0.729 0.156-2.145 0.156-2.875 0-2.646-0.564-4.728-2.423-5.583-4.986-0.231-0.691-0.321-1.331-0.317-2.243 0.005-1.286 0.179-2.030 0.794-3.397 0.183-0.407 0.211-0.523 0.164-0.685-0.079-0.275-0.249-0.423-0.532-0.46-0.34-0.045-0.505 0.105-0.824 0.748-1.626 3.282-0.952 7.28 1.665 9.885 3.383 3.366 8.758 3.366 12.141 0 3.387-3.37 3.387-8.81 0-12.18-1.824-1.815-4.235-2.696-6.82-2.493zM10.207 9.632c-0.076 0.036-0.183 0.162-0.239 0.28-0.239 0.504 0.214 1.010 0.747 0.834 0.63-0.208 0.509-1.197-0.145-1.185-0.124 0.002-0.288 0.034-0.363 0.071zM14.983 10.464c-1.73 0.328-3.244 1.482-4.017 3.062-0.436 0.89-0.548 1.397-0.548 2.469 0 0.737 0.025 1 0.136 1.406 0.427 1.566 1.542 2.925 2.977 3.628 0.889 0.436 1.397 0.549 2.468 0.549s1.58-0.113 2.468-0.549c1.435-0.704 2.55-2.062 2.977-3.628 0.111-0.407 0.136-0.669 0.136-1.406 0-1.072-0.113-1.579-0.548-2.469-0.703-1.436-2.086-2.569-3.628-2.972-0.662-0.173-1.77-0.214-2.423-0.090zM16.862 11.717c0.274 0.056 0.738 0.221 1.075 0.383 0.505 0.243 0.674 0.367 1.135 0.831 0.451 0.455 0.588 0.643 0.824 1.133 0.632 1.309 0.632 2.554 0 3.863-0.236 0.49-0.373 0.678-0.824 1.133-0.46 0.464-0.63 0.588-1.135 0.831-1.32 0.634-2.555 0.634-3.875 0-0.505-0.243-0.675-0.367-1.135-0.831-0.451-0.455-0.588-0.643-0.824-1.133-0.308-0.64-0.478-1.326-0.478-1.931s0.17-1.292 0.478-1.932c0.236-0.49 0.373-0.678 0.824-1.133 0.46-0.464 0.63-0.588 1.135-0.831 0.957-0.46 1.827-0.579 2.799-0.382zM15.781 28.054c-0.398 0.171-0.504 0.687-0.202 0.989 0.129 0.129 0.232 0.171 0.42 0.171 0.727 0 0.811-1.063 0.094-1.182-0.103-0.017-0.244-0.007-0.313 0.022z"></path>
</svg>
