<!-- Generated by IcoMoon.io -->
<svg version="1.1" xmlns="http://www.w3.org/2000/svg" width="35" height="32" viewBox="0 0 35 32">
<path d="M1.287 1.299l1.287 1.299h29.773l2.193-2.599h-34.54l1.287 1.299zM4.542 4.896l1.262 1.431 6.823 0.026 0.086 2.035 0.086 2.035 2.331-2.821c1.282-1.552 2.57-3.117 2.863-3.479l0.531-0.658h-15.245l1.263 1.431zM19.21 7.633c-2.027 2.472-1.891 1.613-1.888 11.928 0.001 5.162 0.099 9.525 0.217 9.695s1.034 0.858 2.036 1.527l1.821 1.217v-22.545l8.014-0 2.509-2.887h-11.835l-0.874 1.066zM14.759 9.905l-1.828 2.19 0.079 5.571 0.079 8.879 1.673 1.139c0.92 0.626 1.741 1.070 1.826 0.987s0.119-7.396 0.076-12.208l-0.077-8.747-1.828 2.19z"></path>
</svg>
