<!-- Generated by IcoMoon.io -->
<svg version="1.1" xmlns="http://www.w3.org/2000/svg" width="32" height="32" viewBox="0 0 32 32">
<path d="M1.265 0.119c-0.628 0.217-1.075 0.713-1.21 1.345-0.049 0.229-0.063 4.436-0.050 14.725l0.019 14.405 0.132 0.284c0.193 0.416 0.487 0.719 0.889 0.916l0.356 0.174 11.295 0.017c8.43 0.012 11.339-0.002 11.47-0.056 0.187-0.077 0.357-0.34 0.357-0.555 0-0.207-0.163-0.469-0.342-0.55-0.125-0.057-2.8-0.075-11.303-0.075-12.114 0-11.392 0.021-11.558-0.342-0.109-0.238-0.109-28.575 0-28.813 0.127-0.279 0.343-0.342 1.171-0.342s1.031-0.056 1.168-0.322c0.167-0.324 0.051-0.715-0.253-0.854-0.269-0.122-1.748-0.094-2.14 0.041zM5.318 0.090c-0.542 0.3-0.316 1.163 0.306 1.163 0.317 0 0.626-0.305 0.626-0.619 0-0.469-0.519-0.772-0.932-0.544zM7.822 0.090c-0.419 0.233-0.406 0.893 0.023 1.088 0.125 0.057 2.799 0.075 11.297 0.075s11.171 0.018 11.297 0.075c0.366 0.166 0.342-0.836 0.342 14.674s0.023 14.507-0.342 14.674c-0.098 0.045-0.466 0.075-0.915 0.075-0.827 0-1.043 0.063-1.171 0.342-0.099 0.216-0.094 0.376 0.016 0.59 0.147 0.284 0.362 0.333 1.36 0.308 0.831-0.020 0.922-0.034 1.251-0.196 0.403-0.198 0.697-0.5 0.889-0.916l0.132-0.284v-29.185l-0.175-0.355c-0.198-0.402-0.501-0.696-0.917-0.888l-0.285-0.132-11.326-0.014c-9.33-0.011-11.352 0.001-11.476 0.069zM7.017 4.531c-1.192 0.27-2.133 1.159-2.481 2.342-0.13 0.441-0.13 1.318 0 1.758 0.531 1.805 2.454 2.841 4.176 2.249 0.573-0.197 0.875-0.385 1.301-0.81 1.045-1.044 1.279-2.511 0.611-3.833-0.231-0.458-0.896-1.151-1.303-1.358-0.749-0.382-1.593-0.509-2.303-0.348zM8.61 5.943c0.424 0.208 0.749 0.539 0.972 0.993 0.199 0.406 0.196 1.223-0.006 1.638-0.226 0.464-0.539 0.78-0.994 1.004-0.801 0.394-1.686 0.242-2.322-0.4-0.384-0.387-0.535-0.74-0.562-1.313-0.027-0.57 0.077-0.937 0.38-1.332 0.613-0.801 1.62-1.035 2.533-0.589zM20.392 11.47c-0.888 0.199-1.556 0.475-2.205 0.914-0.198 0.133-0.373 0.243-0.391 0.243s-0.032-0.087-0.032-0.194c0-0.271-0.165-0.588-0.35-0.673-0.207-0.094-4.797-0.1-4.972-0.007-0.322 0.172-0.309-0.142-0.309 7.9v7.47l0.365 0.408 2.476 0.018c2.675 0.019 2.742 0.012 2.93-0.315 0.062-0.109 0.087-1.163 0.111-4.733l0.031-4.593 0.185-0.333c0.22-0.397 0.448-0.601 0.904-0.81 0.888-0.408 1.957-0.017 2.436 0.89l0.167 0.316 0.031 4.608 0.031 4.608 0.347 0.346 2.469 0.018c2.668 0.019 2.736 0.012 2.923-0.315 0.063-0.111 0.080-1.222 0.080-5.296 0-4.759-0.009-5.197-0.114-5.686-0.488-2.264-2.1-3.998-4.331-4.66-0.707-0.209-2.117-0.272-2.783-0.123zM4.984 11.872l-0.204 0.182v7.52c0 5.994 0.016 7.548 0.080 7.66 0.187 0.327 0.255 0.334 2.93 0.315l2.476-0.018 0.365-0.408v-7.47c0-8.042 0.012-7.728-0.309-7.9-0.077-0.041-1.027-0.064-2.627-0.064h-2.506l-0.204 0.182zM22.989 12.842c1.308 0.444 2.269 1.267 2.851 2.441 0.51 1.029 0.497 0.872 0.497 6.259v4.771h-3.316l-0.001-4.078c-0.001-4.477-0.005-4.532-0.378-5.231-0.364-0.681-1.082-1.28-1.811-1.508-0.556-0.174-1.396-0.173-1.904 0.003-1.010 0.35-1.718 1.060-2.053 2.060-0.135 0.404-0.138 0.482-0.16 4.582l-0.022 4.171h-3.309v-13.374h3.129v0.722c0 0.844 0.069 1.042 0.405 1.152 0.12 0.040 0.281 0.053 0.356 0.029s0.421-0.329 0.768-0.677c0.645-0.649 1.053-0.933 1.731-1.206 0.652-0.263 1.082-0.332 1.934-0.308 0.65 0.018 0.867 0.050 1.283 0.191zM9.379 19.626v6.687h-3.316v-13.374h3.316v6.687zM26.093 30.837c-0.542 0.3-0.316 1.163 0.306 1.163 0.317 0 0.626-0.305 0.626-0.619 0-0.469-0.519-0.772-0.932-0.544z"></path>
</svg>
