<!-- Generated by IcoMoon.io -->
<svg version="1.1" xmlns="http://www.w3.org/2000/svg" width="142" height="32" viewBox="0 0 142 32">
<path d="M2.514 2.599h29.083l2.142-2.599h-33.739l2.514 2.599zM5.67 6.327l6.665 0.026 0.167 4.070 2.277-2.821c1.253-1.552 2.511-3.117 2.796-3.479l0.519-0.658h-14.891l2.466 2.862zM18.765 7.633c-1.98 2.472-1.847 1.613-1.844 11.928 0.001 5.162 0.096 9.525 0.211 9.695s1.010 0.858 1.988 1.527l1.779 1.217v-22.545l7.829-0 2.451-2.887h-11.561l-0.854 1.066zM12.632 12.095l0.077 5.571 0.077 8.879 1.634 1.139c0.899 0.626 1.701 1.070 1.784 0.987s0.116-7.396 0.074-12.208l-0.076-8.747-3.571 4.379z"></path>
<path d="M42.431 9.802h8.538v1.81h-6.466v3.913h5.609v1.81h-5.609v5.266h-2.072v-12.8z"></path>
<path d="M52.405 11.539v-1.061l0.732-0.731h1.090l0.732 0.731v1.061l-0.732 0.732h-1.090l-0.732-0.732zM52.673 13.496h2.018v9.106h-2.018v-9.106z"></path>
<path d="M57.186 13.496h1.876v1.664l1.625-1.664h2.822l1.875 1.92v7.186h-2.018v-6.619l-0.697-0.713h-1.608l-1.858 1.92v5.413h-2.018v-9.106z"></path>
<path d="M67.528 11.539v-1.061l0.732-0.731h1.090l0.732 0.731v1.061l-0.732 0.732h-1.090l-0.732-0.732zM67.796 13.496h2.018v9.106h-2.018v-9.106z"></path>
<path d="M73.113 20.792v-5.541h-1.608v-1.755h1.643v-2.962h1.983v2.962h2.733v1.755h-2.733v4.882l0.697 0.713h2.036v1.755h-2.983l-1.768-1.81z"></path>
<path d="M87.605 13.496v11.264l-1.84 1.865h-4.537l-1.572-1.591v-1.207h2.018v0.604l0.429 0.457h2.787l0.697-0.732v-3.108l-1.5 1.554h-2.876l-1.822-1.883v-7.223h2.018v6.619l0.697 0.713h1.625l1.858-1.975v-5.358h2.018z"></path>
<path d="M97.566 11.612h-3.751v-1.81h9.574v1.81h-3.751v10.99h-2.072v-10.99z"></path>
<path d="M103.127 20.773v-5.449l1.768-1.829h4.93l1.786 1.829v5.449l-1.786 1.829h-4.93l-1.768-1.829zM108.878 20.865l0.714-0.732v-4.169l-0.714-0.731h-3.019l-0.715 0.731v4.169l0.715 0.732h3.019z"></path>
<path d="M113.665 20.755v-7.259h2.018v6.619l0.697 0.713h1.554l1.893-1.938v-5.394h2.018v9.106h-1.875v-1.682l-1.662 1.682h-2.84l-1.804-1.847z"></path>
<path d="M123.989 20.792v-5.486l1.751-1.81h4.697l1.768 1.829v1.499h-2.018v-0.841l-0.715-0.713h-2.751l-0.713 0.713v4.133l0.713 0.713h2.751l0.715-0.713v-0.841h2.018v1.499l-1.768 1.829h-4.697l-1.751-1.81z"></path>
<path d="M133.988 9.546h2.018v5.522l1.536-1.572h2.805l1.875 1.92v7.186h-2.018v-6.619l-0.697-0.713h-1.643l-1.858 1.92v5.413h-2.018v-13.056z"></path>
</svg>
