<!-- Generated by IcoMoon.io -->
<svg version="1.1" xmlns="http://www.w3.org/2000/svg" width="32" height="32" viewBox="0 0 32 32">
<path d="M15.305 0.101c-0.183 0.056-1.758 0.886-3.499 1.844-3.256 1.792-3.639 2.044-3.946 2.591l-0.144 0.256h-1.081l-0.508-0.521 0.122-0.356c0.196-0.571 0.163-1.151-0.096-1.677-0.644-1.309-2.296-1.625-3.369-0.643-0.423 0.387-0.645 0.847-0.692 1.439-0.122 1.519 1.375 2.659 2.841 2.162l0.424-0.144 0.84 0.807h1.278v2.667h-3.256l-0.163-0.356c-0.2-0.438-0.541-0.788-0.999-1.025-0.296-0.154-0.431-0.181-0.914-0.182-0.674-0.002-1.061 0.154-1.522 0.614-0.434 0.434-0.576 0.8-0.576 1.482s0.142 1.047 0.576 1.482c0.448 0.448 0.849 0.614 1.488 0.617 0.439 0.002 0.599-0.029 0.905-0.173 0.471-0.221 0.832-0.581 1.041-1.037l0.163-0.356h3.256v2.134h-1.278l-0.84 0.807-0.405-0.137c-0.696-0.235-1.373-0.14-1.928 0.268-0.348 0.256-0.681 0.726-0.681 0.961 0 0.241 0.276 0.502 0.532 0.502 0.16 0 0.28-0.079 0.554-0.361 0.524-0.541 1.046-0.587 1.583-0.137 0.307 0.257 0.579 0.298 0.746 0.114 0.058-0.064 0.278-0.304 0.488-0.534l0.382-0.417h0.83l0.030 0.41c0.024 0.325 0.061 0.436 0.182 0.533 0.214 0.174 0.51 0.157 0.707-0.040l0.164-0.164v-3.926c0-4.357-0.003-4.32 0.435-4.771 0.142-0.147 1.3-0.828 3.111-1.831 1.587-0.879 3.014-1.663 3.173-1.743 0.39-0.197 0.842-0.242 1.198-0.118 0.544 0.189 6.231 3.386 6.526 3.669 0.495 0.474 0.485 0.373 0.488 4.775 0.002 4.123-0.005 4.027 0.31 4.195 0.225 0.12 0.412 0.093 0.591-0.086 0.134-0.134 0.164-0.23 0.164-0.533v-0.37h0.846l0.377 0.395c0.207 0.217 0.377 0.423 0.377 0.456 0 0.076 0.298 0.216 0.46 0.216 0.066 0 0.252-0.105 0.413-0.233 0.561-0.446 1.049-0.403 1.573 0.139 0.407 0.42 0.648 0.471 0.922 0.197 0.214-0.214 0.206-0.409-0.030-0.783-0.48-0.758-1.501-1.095-2.396-0.791l-0.424 0.144-0.84-0.807h-1.278v-2.134h3.256l0.163 0.356c0.2 0.438 0.541 0.788 0.999 1.025 0.296 0.154 0.431 0.181 0.914 0.182 0.674 0.002 1.061-0.154 1.522-0.614 0.434-0.434 0.576-0.8 0.576-1.482s-0.142-1.047-0.576-1.482c-0.461-0.461-0.847-0.617-1.522-0.615-0.483 0.002-0.618 0.029-0.914 0.182-0.458 0.237-0.798 0.587-0.999 1.025l-0.163 0.356h-3.256v-2.667h1.278l0.84-0.807 0.424 0.144c1.033 0.35 2.148-0.126 2.638-1.128 0.155-0.316 0.184-0.462 0.184-0.91s-0.030-0.594-0.184-0.91c-0.216-0.441-0.664-0.878-1.103-1.077-0.436-0.198-1.254-0.198-1.69 0-1.033 0.468-1.548 1.626-1.191 2.68l0.144 0.427-0.251 0.257c-0.25 0.256-0.253 0.257-0.787 0.257l-0.536-0-0.179-0.283c-0.099-0.156-0.294-0.393-0.433-0.528-0.324-0.312-6.377-3.702-6.908-3.868-0.465-0.146-1.021-0.15-1.477-0.011zM4.697 2.215c0.685 0.286 0.852 1.185 0.319 1.717-0.432 0.433-1.050 0.433-1.482 0-0.824-0.825 0.085-2.168 1.163-1.717zM28.157 2.215c0.685 0.286 0.852 1.185 0.319 1.717-0.436 0.436-1.033 0.433-1.474-0.008-0.828-0.829 0.073-2.162 1.155-1.71zM9.771 7.090l-0.164 0.164v4.68l0.164 0.164c0.199 0.199 0.493 0.214 0.712 0.036 0.155-0.125 0.158-0.153 0.191-1.579l0.033-1.452 1.153 1.54c0.634 0.847 1.199 1.558 1.255 1.579 0.211 0.081 0.436 0.034 0.594-0.124l0.164-0.164v-4.68l-0.164-0.164c-0.199-0.199-0.493-0.214-0.712-0.036-0.155 0.125-0.158 0.153-0.191 1.579l-0.033 1.452-1.153-1.54c-0.634-0.847-1.199-1.558-1.255-1.579-0.211-0.081-0.436-0.034-0.594 0.125zM15.102 7.090l-0.164 0.164v4.68l0.164 0.164c0.103 0.103 0.24 0.164 0.37 0.164s0.266-0.060 0.37-0.164c0.158-0.158 0.164-0.197 0.164-1.067v-0.903h0.903c0.87 0 0.909-0.006 1.066-0.164 0.216-0.217 0.216-0.523 0-0.74-0.158-0.158-0.197-0.164-1.066-0.164h-0.903v-1.067h0.903c0.87 0 0.909-0.006 1.066-0.164 0.103-0.103 0.164-0.24 0.164-0.37s-0.060-0.267-0.164-0.37c-0.162-0.162-0.174-0.164-1.436-0.164s-1.274 0.001-1.436 0.164zM19.368 7.090c-0.103 0.103-0.164 0.24-0.164 0.37 0 0.34 0.252 0.533 0.697 0.533h0.37v3.941l0.164 0.164c0.103 0.103 0.24 0.164 0.37 0.164s0.266-0.060 0.37-0.164l0.164-0.164v-3.941h0.37c0.445 0 0.697-0.193 0.697-0.533 0-0.13-0.060-0.267-0.164-0.37-0.162-0.162-0.174-0.164-1.436-0.164s-1.274 0.001-1.436 0.164zM2.565 8.084c0.69 0.288 0.851 1.17 0.311 1.71-0.441 0.441-1.038 0.444-1.474 0.008-0.824-0.825 0.085-2.168 1.163-1.717zM30.289 8.084c0.69 0.288 0.851 1.17 0.311 1.71-0.441 0.441-1.038 0.444-1.474 0.008-0.824-0.825 0.085-2.168 1.163-1.717zM3.693 15.033c-1.771 0.388-3.207 1.843-3.583 3.63-0.147 0.7-0.147 9.896 0 10.52 0.311 1.32 1.446 2.443 2.748 2.719 1.031 0.219 2.29 0.063 3.073-0.38 0.5-0.283 1.191-0.993 1.458-1.497 0.167-0.316 0.46-0.64 1.309-1.45l1.093-1.043h12.429l1.091 1.041c0.851 0.812 1.138 1.131 1.307 1.45 0.122 0.231 0.42 0.614 0.683 0.877 0.757 0.758 1.623 1.098 2.799 1.097 1.229-0 2.1-0.343 2.851-1.121 0.732-0.758 1.045-1.576 1.047-2.731 0.001-0.57-0.012-0.633-0.163-0.784-0.216-0.217-0.523-0.217-0.739 0-0.149 0.149-0.164 0.216-0.164 0.76 0 1.348-0.632 2.295-1.784 2.674-0.777 0.255-1.924 0.152-2.58-0.232-0.401-0.235-0.881-0.77-1.065-1.186-0.128-0.29-0.388-0.572-1.496-1.624-0.967-0.918-1.399-1.284-1.548-1.314-0.268-0.054-12.638-0.054-12.906-0.001-0.144 0.029-0.593 0.41-1.548 1.315-1.111 1.053-1.372 1.335-1.5 1.624-0.183 0.415-0.664 0.95-1.065 1.185-0.93 0.546-2.481 0.484-3.314-0.131-0.426-0.314-0.755-0.778-0.916-1.29-0.129-0.408-0.134-0.606-0.134-5.204 0-5.181-0.002-5.15 0.37-5.919 0.382-0.789 1.117-1.452 2.004-1.807l0.458-0.184h24.126l0.5 0.185c0.991 0.367 1.777 1.144 2.182 2.157l0.183 0.459 0.034 3.524 0.034 3.524 0.157 0.127c0.219 0.177 0.514 0.162 0.712-0.036l0.164-0.164v-3.298c0-3.815-0.017-3.978-0.504-4.966-0.495-1.003-1.37-1.827-2.407-2.265-0.852-0.36-0.338-0.347-13.138-0.339-9.75 0.006-11.915 0.023-12.258 0.098zM24.003 16.616c-0.327 0.103-0.885 0.681-0.985 1.021-0.185 0.625-0.054 1.124 0.417 1.595 0.682 0.683 1.623 0.668 2.255-0.035 0.62-0.69 0.6-1.519-0.051-2.17-0.469-0.469-1.015-0.606-1.635-0.411zM4.972 17.226c-0.158 0.158-0.164 0.197-0.164 1.067v0.903h-0.903c-0.87 0-0.909 0.006-1.066 0.164-0.162 0.162-0.164 0.174-0.164 1.437s0.001 1.274 0.164 1.437c0.158 0.158 0.197 0.164 1.066 0.164h0.903v0.903c0 0.87 0.006 0.909 0.164 1.067 0.162 0.162 0.174 0.164 1.436 0.164s1.274-0.001 1.436-0.164c0.158-0.158 0.164-0.197 0.164-1.067v-0.903h0.903c0.87 0 0.909-0.006 1.066-0.164 0.162-0.162 0.164-0.174 0.164-1.437s-0.001-1.274-0.164-1.437c-0.158-0.158-0.197-0.164-1.066-0.164h-0.903v-0.903c0-0.87-0.006-0.909-0.164-1.067-0.162-0.162-0.174-0.164-1.436-0.164s-1.274 0.001-1.436 0.164zM12.437 17.226c-0.103 0.103-0.164 0.24-0.164 0.37s0.060 0.267 0.164 0.37c0.162 0.162 0.174 0.164 1.436 0.164s1.274-0.001 1.436-0.164c0.103-0.103 0.164-0.24 0.164-0.37s-0.060-0.267-0.164-0.37c-0.162-0.162-0.174-0.164-1.436-0.164s-1.274 0.001-1.436 0.164zM16.702 17.226c-0.103 0.103-0.164 0.24-0.164 0.37s0.060 0.267 0.164 0.37c0.162 0.162 0.174 0.164 1.436 0.164s1.274-0.001 1.436-0.164c0.103-0.103 0.164-0.24 0.164-0.37s-0.060-0.267-0.164-0.37c-0.162-0.162-0.174-0.164-1.436-0.164s-1.274 0.001-1.436 0.164zM24.905 17.759c0.103 0.103 0.164 0.24 0.164 0.37s-0.060 0.267-0.164 0.37c-0.103 0.103-0.24 0.164-0.37 0.164s-0.266-0.060-0.37-0.164c-0.103-0.103-0.164-0.24-0.164-0.37s0.060-0.267 0.164-0.37c0.103-0.103 0.24-0.164 0.37-0.164s0.266 0.060 0.37 0.164zM6.941 19.032c0 0.87 0.006 0.909 0.164 1.067s0.197 0.164 1.066 0.164h0.903v1.067h-0.903c-0.87 0-0.909 0.006-1.066 0.164s-0.164 0.197-0.164 1.067v0.903h-1.066v-0.903c0-0.87-0.006-0.909-0.164-1.067s-0.197-0.164-1.066-0.164h-0.903v-1.067h0.903c0.87 0 0.909-0.006 1.066-0.164s0.164-0.197 0.164-1.067v-0.903h1.066v0.903zM27.202 19.283c-0.327 0.103-0.885 0.681-0.985 1.021-0.185 0.625-0.054 1.124 0.417 1.595 0.682 0.683 1.623 0.668 2.255-0.035 0.62-0.69 0.6-1.519-0.051-2.17-0.469-0.469-1.015-0.606-1.635-0.411zM28.104 20.427c0.103 0.103 0.164 0.24 0.164 0.37s-0.060 0.267-0.164 0.37c-0.103 0.103-0.24 0.164-0.37 0.164s-0.266-0.061-0.37-0.164c-0.103-0.103-0.164-0.24-0.164-0.37s0.060-0.267 0.164-0.37c0.103-0.103 0.24-0.164 0.37-0.164s0.266 0.060 0.37 0.164zM22.403 20.884c-0.327 0.103-0.885 0.681-0.985 1.021-0.185 0.625-0.054 1.124 0.417 1.595 0.345 0.345 0.683 0.498 1.102 0.498 0.826 0 1.599-0.774 1.599-1.6 0-0.419-0.152-0.757-0.498-1.103-0.469-0.469-1.015-0.606-1.635-0.411zM12.437 21.494c-0.162 0.162-0.164 0.174-0.164 1.437 0 1.714-0.114 1.6 1.599 1.6s1.599 0.114 1.599-1.6 0.114-1.6-1.599-1.6c-1.262 0-1.274 0.001-1.436 0.164zM16.702 21.494c-0.162 0.162-0.164 0.174-0.164 1.437 0 1.714-0.114 1.6 1.599 1.6 1.262 0 1.274-0.001 1.436-0.164s0.164-0.174 0.164-1.437c0-1.714 0.114-1.6-1.599-1.6-1.262 0-1.274 0.001-1.436 0.164zM23.306 22.027c0.103 0.103 0.164 0.24 0.164 0.37s-0.060 0.267-0.164 0.37c-0.103 0.103-0.24 0.164-0.37 0.164s-0.266-0.060-0.37-0.164c-0.103-0.103-0.164-0.24-0.164-0.37s0.060-0.267 0.164-0.37c0.103-0.103 0.24-0.164 0.37-0.164s0.266 0.060 0.37 0.164zM14.406 22.93v0.533h-1.066v-1.067h1.066v0.534zM18.671 22.93v0.533h-1.066v-1.067h1.066v0.534zM25.602 23.551c-0.327 0.103-0.885 0.681-0.985 1.021-0.185 0.625-0.054 1.124 0.417 1.595 0.345 0.345 0.683 0.498 1.102 0.498 0.826 0 1.599-0.774 1.599-1.6 0-0.419-0.152-0.757-0.498-1.103-0.469-0.469-1.015-0.606-1.635-0.411zM26.505 24.695c0.103 0.103 0.164 0.24 0.164 0.37s-0.060 0.267-0.164 0.37c-0.103 0.103-0.24 0.164-0.37 0.164s-0.266-0.060-0.37-0.164c-0.103-0.103-0.164-0.24-0.164-0.37s0.060-0.267 0.164-0.37c0.103-0.103 0.24-0.164 0.37-0.164s0.266 0.060 0.37 0.164z"></path>
</svg>
