<!-- Generated by IcoMoon.io -->
<svg version="1.1" xmlns="http://www.w3.org/2000/svg" width="37" height="32" viewBox="0 0 37 32">
<path d="M29.694 0.133c-0.671 0.202-1.047 0.435-1.561 0.973-1.148 1.199-1.395 2.828-0.659 4.332 0.244 0.498 0.87 1.187 1.333 1.467 0.614 0.371 1.122 0.51 1.866 0.51 1.064 0 1.832-0.333 2.585-1.122 1.393-1.459 1.373-3.705-0.045-5.187-0.26-0.272-0.639-0.581-0.841-0.686-0.818-0.428-1.843-0.537-2.679-0.286zM31.581 1.7c0.804 0.392 1.229 1.093 1.231 2.031 0.001 0.45-0.034 0.632-0.177 0.921-0.844 1.704-3.080 1.704-3.924 0-0.238-0.48-0.249-1.317-0.024-1.822 0.519-1.167 1.795-1.666 2.893-1.13zM24.767 2.167c-0.335 0.411-0.204 0.948 0.283 1.158 0.727 0.313 1.324-0.596 0.768-1.17-0.171-0.177-0.275-0.219-0.538-0.219-0.275 0-0.355 0.036-0.513 0.23zM22.148 2.365c-0.262 0.066-1.093 0.681-1.516 1.121-0.809 0.841-1.136 1.497-1.712 3.436-0.209 0.705-0.405 1.322-0.434 1.37-0.034 0.057-0.471 0.113-1.226 0.157-3.45 0.202-6.492 1.085-9.15 2.656l-0.544 0.322-0.633-0.32c-0.793-0.402-1.347-0.53-2.269-0.525-1.782 0.010-3.351 1.048-4.177 2.764-0.942 1.958-0.489 4.34 1.109 5.831 0.245 0.228 0.472 0.415 0.505 0.415s0.060 0.261 0.061 0.58c0.004 5.404 5.009 10.097 12.227 11.464 2.249 0.426 5.299 0.487 7.47 0.15 2.233-0.347 5.079-1.23 5.604-1.738 0.237-0.23 0.228-0.72-0.019-0.974-0.261-0.269-0.477-0.285-1.033-0.078-1.879 0.7-2.837 0.976-4.202 1.212-4.261 0.738-8.733 0.156-12.248-1.593-1.704-0.848-2.842-1.668-3.919-2.823-1.246-1.337-1.963-2.657-2.291-4.217-0.136-0.647-0.122-2.202 0.025-2.845 0.723-3.154 3.348-5.829 7.29-7.43 4.582-1.86 10.402-1.86 14.983 0 3.942 1.6 6.567 4.276 7.29 7.43 0.184 0.804 0.165 2.291-0.040 3.139-0.296 1.221-1.015 2.574-1.925 3.621-0.256 0.294-0.483 0.627-0.505 0.741-0.054 0.279 0.155 0.706 0.406 0.829 0.337 0.165 0.608 0.046 1.094-0.484 1.612-1.755 2.583-4.158 2.585-6.397 0-0.57 0.002-0.575 0.244-0.729 0.635-0.405 1.37-1.463 1.674-2.411 0.401-1.251 0.317-2.528-0.244-3.692-0.827-1.718-2.394-2.754-4.176-2.764-0.923-0.005-1.477 0.124-2.27 0.526l-0.633 0.321-0.472-0.285c-2.36-1.428-5.423-2.386-8.506-2.66-0.309-0.027-0.562-0.071-0.562-0.096 0-0.165 0.78-2.525 0.947-2.867 0.275-0.562 0.836-1.18 1.448-1.596 0.276-0.188 0.536-0.406 0.577-0.486 0.191-0.368-0.001-0.912-0.369-1.044-0.127-0.046-0.25-0.079-0.274-0.074s-0.109 0.025-0.189 0.045zM5.838 12.227l0.376 0.126-0.927 0.944c-1.354 1.38-2.085 2.487-2.575 3.903-0.129 0.373-0.259 0.678-0.289 0.678-0.094-0.001-0.47-0.536-0.657-0.934-0.603-1.283-0.285-2.974 0.741-3.942 0.459-0.434 1.131-0.794 1.665-0.894 0.469-0.088 1.209-0.035 1.666 0.119zM32.878 12.108c2.455 0.414 3.621 3.495 2.080 5.495-0.116 0.151-0.236 0.275-0.265 0.275s-0.159-0.305-0.289-0.678c-0.49-1.416-1.221-2.523-2.576-3.904l-0.927-0.945 0.376-0.117c0.703-0.218 0.946-0.238 1.602-0.127zM12.554 15.142c-0.571 0.159-0.945 0.382-1.365 0.815-1.077 1.111-1.2 2.793-0.295 4.060 1.106 1.548 3.299 1.699 4.581 0.314 0.683-0.738 0.985-1.683 0.838-2.621-0.29-1.858-2.031-3.047-3.759-2.568zM23.202 15.147c-1.477 0.409-2.444 1.955-2.194 3.509 0.273 1.696 1.873 2.889 3.468 2.585 1.665-0.317 2.78-1.899 2.512-3.564-0.296-1.843-2.046-3.012-3.786-2.53zM13.954 16.664c0.162 0.076 0.412 0.28 0.557 0.454 1.186 1.429-0.55 3.429-2.074 2.389-0.709-0.484-0.913-1.552-0.433-2.266 0.416-0.62 1.3-0.881 1.95-0.577zM24.702 16.712c0.518 0.266 0.894 0.857 0.893 1.405-0.001 0.886-0.766 1.697-1.599 1.697-0.338 0-0.82-0.22-1.102-0.504-0.774-0.779-0.589-2.061 0.372-2.578 0.503-0.271 0.936-0.277 1.437-0.020zM12.499 24.258c-0.385 0.397-0.308 0.842 0.217 1.253 0.846 0.662 2.37 1.345 3.673 1.646 0.648 0.15 0.952 0.174 2.168 0.174 1.561 0 2.335-0.125 3.486-0.562 1.051-0.4 2.398-1.177 2.681-1.549 0.204-0.267 0.187-0.632-0.042-0.913-0.288-0.353-0.65-0.322-1.299 0.113-1.471 0.984-3.070 1.47-4.83 1.467-1.765-0.003-3.352-0.486-4.819-1.467-0.606-0.406-0.953-0.452-1.234-0.163zM28.816 27.773c-0.271 0.28-0.312 0.521-0.143 0.857 0.184 0.366 0.622 0.482 0.986 0.26 0.641-0.39 0.352-1.371-0.403-1.371-0.122 0-0.282 0.093-0.439 0.254z"></path>
</svg>
