<!-- Generated by IcoMoon.io -->
<svg version="1.1" xmlns="http://www.w3.org/2000/svg" width="38" height="32" viewBox="0 0 38 32">
<path d="M20.518 0.341c-3.421 0.629-6.172 3.344-6.871 6.778-0.173 0.852-0.184 2.617-0.021 3.405 0.065 0.312 0.105 0.567 0.091 0.567s-0.219-0.124-0.455-0.275c-0.236-0.151-0.751-0.382-1.145-0.511-0.605-0.199-0.883-0.237-1.79-0.24-1.618-0.006-2.853 0.265-5.113 1.122-1.297 0.492-2.229 0.679-3.794 0.763-0.954 0.051-1.044 0.072-1.231 0.284-0.251 0.285-0.252 0.401-0.006 0.718l0.195 0.252 1.304-0.050c1.494-0.057 2.364-0.22 3.58-0.669 2.648-0.98 3.413-1.159 4.975-1.163 0.896-0.002 1.174 0.032 1.676 0.208 0.824 0.289 1.518 0.832 2.001 1.569 0.219 0.333 0.461 0.63 0.538 0.66s1.058 0.055 2.179 0.055c2.097 0 2.418 0.043 2.881 0.386 0.306 0.227 0.605 0.775 0.636 1.164l0.025 0.309-5.882 0.048-1.615-0.649c-1.76-0.707-1.964-0.73-2.194-0.243-0.12 0.254-0.017 0.65 0.192 0.742 0.055 0.024 0.803 0.332 1.662 0.685l1.562 0.642h13.382l0.135 0.195c0.143 0.207 0.074 0.468-0.145 0.553-0.063 0.024-2.506 0.426-5.429 0.892l-5.314 0.848-9.192-1.86-3.338 0.915c-1.836 0.503-3.446 0.957-3.577 1.009s-0.288 0.216-0.349 0.364c-0.096 0.235-0.087 0.302 0.068 0.514 0.098 0.134 0.277 0.256 0.397 0.27s1.707-0.386 3.527-0.891l3.309-0.918 9.164 1.852 5.534-0.881c6.175-0.983 6.11-0.966 6.465-1.71 0.408-0.855 0.117-1.762-0.699-2.173l-0.442-0.223 0.536-0.534c2.661-2.65 3.384-6.559 1.828-9.887-0.49-1.049-0.811-1.523-1.604-2.368-1.916-2.044-4.89-3.026-7.637-2.521zM24.113 1.747c5.031 1.62 6.858 7.637 3.586 11.813-0.524 0.669-1.431 1.425-2.204 1.836l-0.61 0.325-3.458-0.049-0.055-0.458c-0.112-0.93-0.688-1.8-1.482-2.238-0.583-0.322-1.327-0.432-2.922-0.432l-1.326-0.001-0.296-0.658c-0.459-1.021-0.629-1.856-0.624-3.061 0.006-1.233 0.168-1.972 0.677-3.084 0.954-2.084 2.823-3.617 5.043-4.134 0.835-0.195 2.87-0.116 3.67 0.141zM26.799 21.218c-1.504 0.245-2.786 0.966-3.554 1.996l-0.351 0.471-4.067 0.060-0.597 0.298c-0.966 0.482-1.681 1.514-1.681 2.426v0.314l-2.842 0.002c-2.933 0.002-3.443 0.051-3.887 0.372-0.515 0.371-0.752 1.23-0.516 1.865 0.132 0.355 0.6 0.824 0.928 0.931 0.151 0.049 2.731 0.483 5.733 0.963l5.458 0.874 9.148-1.852 3.348 0.928c3.597 0.997 3.686 1.009 3.915 0.526 0.138-0.293 0.012-0.643-0.28-0.774-0.105-0.047-1.715-0.506-3.577-1.020l-3.385-0.934-9.202 1.863-5.351-0.852c-5.755-0.916-5.841-0.937-5.551-1.38l0.129-0.197 13.585-0.091 1.477-0.619c0.812-0.34 1.553-0.693 1.645-0.785 0.339-0.335 0.099-1-0.361-1-0.116 0-0.864 0.265-1.662 0.59l-1.451 0.59h-6.152l0.063-0.295c0.111-0.523 0.393-0.969 0.774-1.224l0.372-0.25 2.29-0.045c1.259-0.025 2.341-0.079 2.403-0.12s0.197-0.242 0.3-0.446c0.242-0.48 0.912-1.138 1.472-1.445 0.76-0.416 1.477-0.555 2.59-0.503 1.31 0.061 2.484 0.336 4.163 0.974 1.645 0.625 2.486 0.803 4.137 0.877 1.317 0.059 1.439 0.029 1.599-0.4 0.11-0.294-0.066-0.632-0.391-0.747-0.148-0.052-0.641-0.095-1.095-0.095-1.047 0-2.204-0.204-3.176-0.559-1.967-0.719-2.528-0.896-3.402-1.075-0.923-0.189-2.47-0.298-2.999-0.212z"></path>
<path d="M18.903 6.61c0.379-1.79 1.802-3.103 3.562-3.289 0.105-0.011 0.241-0.022 0.303-0.023l0.113-0.003v0.816l-0.161 0.015c-0.904 0.083-1.589 0.404-2.169 1.014-0.445 0.468-0.715 0.985-0.853 1.635-0.059 0.279-0.058 1.008 0.002 1.288 0.143 0.664 0.431 1.201 0.895 1.67 0.398 0.402 0.844 0.675 1.362 0.832 0.246 0.075 0.579 0.131 0.776 0.131l0.149 0v0.832l-0.282-0.017c-0.696-0.042-1.36-0.273-1.98-0.688-0.37-0.248-0.846-0.729-1.091-1.1-0.304-0.463-0.508-0.953-0.627-1.511-0.047-0.22-0.054-0.325-0.055-0.796-0.001-0.482 0.005-0.572 0.055-0.808z"></path>
<path d="M21.229 5.611c0.418-0.396 0.94-0.621 1.533-0.661 0.059-0.004 0.145-0.004 0.19-0.001 0.332 0.026 0.427 0.041 0.612 0.095 0.97 0.285 1.667 1.153 1.755 2.187l0.016 0.187-0.823-0.013-0.015-0.173c-0.033-0.371-0.183-0.682-0.472-0.974-0.331-0.335-0.678-0.481-1.143-0.481-1.096 0-1.87 1.074-1.538 2.134 0.195 0.623 0.745 1.078 1.376 1.137l0.162 0.015v0.82l-0.199-0.014c-0.552-0.040-1.108-0.302-1.516-0.715-0.975-0.988-0.947-2.587 0.063-3.544z"></path>
<path d="M18.455 11.023c-0.771-0.991-1.17-2.067-1.251-3.371l-0.015-0.236 0.824 0.013 0.016 0.313c0.029 0.587 0.2 1.244 0.472 1.815 0.567 1.19 1.581 2.1 2.812 2.523 0.465 0.16 0.731 0.21 1.407 0.269l0.161 0.014v0.822l-0.268-0.017c-1.44-0.089-2.727-0.665-3.722-1.665-0.158-0.159-0.355-0.376-0.437-0.482z"></path>
<path d="M24.191 7.99c-0.002-0.080 0.020-0.161 0.049-0.181 0.068-0.046 3.137-0.036 3.137 0.010 0 0.019-0.281 0.3-0.624 0.625l-0.624 0.591h-2.478l-0.025 1.147-0.333 0.004v-1.512h2.67l0.263-0.232c0.145-0.127 0.263-0.248 0.263-0.269s-0.085-0.035-0.189-0.032c-0.104 0.003-0.62 0.002-1.147-0.001l-0.959-0.006-0.004-0.145z"></path>
<path d="M24.226 10.213v-0.773h0.355v0.414l0.802-0.018c0.441-0.010 0.81-0.004 0.821 0.013s-0.262 0.296-0.604 0.621l-0.623 0.59h-1.327v1.627l0.574-0.524 0.003-0.697h0.355v0.843l-0.566 0.535c-0.311 0.294-0.601 0.563-0.644 0.597-0.074 0.058-0.078-0.012-0.078-1.339v-1.4h1.516l0.263-0.232c0.145-0.128 0.251-0.244 0.237-0.259s-0.264-0.020-0.555-0.011l-0.529 0.015z"></path>
</svg>
