<!-- Generated by IcoMoon.io -->
<svg version="1.1" xmlns="http://www.w3.org/2000/svg" width="36" height="32" viewBox="0 0 36 32">
<path d="M23.708 0.072c-1.668 0.207-3.405 1.152-4.629 2.518-0.643 0.718-0.973 1.229-1.399 2.168-0.539 1.186-0.738 2.074-0.786 3.497l-0.038 1.13-0.395-0.050c-0.405-0.051-1.894-0.345-2.65-0.522-0.679-0.16-1.014 0.060-1.035 0.68-0.016 0.458 0.253 0.663 1.186 0.905 1.101 0.285 2.534 0.509 3.385 0.528 0.734 0.016 0.737 0.016 0.914-0.207 0.162-0.204 0.174-0.266 0.135-0.687-0.107-1.147-0.124-2.099-0.047-2.639 0.182-1.271 0.777-2.608 1.586-3.568 1.383-1.639 3.5-2.513 5.435-2.241 1.446 0.203 2.496 0.718 3.586 1.76 0.271 0.259 0.564 0.509 0.652 0.554 0.222 0.116 0.912-0.036 2.13-0.471 0.543-0.194 0.987-0.331 0.987-0.304 0 0.12-0.872 1.061-1.268 1.369-0.731 0.568-0.838 0.682-0.884 0.949-0.050 0.29 0.103 0.68 0.317 0.804 0.21 0.122 0.671 0.092 1.536-0.098l0.793-0.174-0.3 0.336c-0.165 0.185-0.608 0.608-0.986 0.941s-0.718 0.671-0.757 0.751c-0.039 0.080-0.072 0.568-0.073 1.085-0.011 9.536-5.512 17.837-13.576 20.487-2.833 0.931-5.931 1.167-8.942 0.683-1.401-0.225-3.47-0.862-4.561-1.403l-0.428-0.212 0.423-0.054c2.349-0.299 4.72-1.231 6.62-2.602 1.107-0.799 1.235-0.937 1.235-1.334 0-0.248-0.044-0.367-0.199-0.535-0.167-0.18-0.278-0.224-0.687-0.264-1.23-0.123-2.51-0.613-3.372-1.29-0.555-0.436-1.22-1.185-1.603-1.805l-0.354-0.574 0.73-0.048c1.523-0.099 2.053-0.353 2.053-0.983 0-0.461-0.189-0.615-1.157-0.949-1.107-0.381-1.813-0.854-2.631-1.761-0.655-0.726-1.067-1.393-1.395-2.253-0.174-0.458-0.423-1.377-0.383-1.419 0.009-0.010 0.302 0.066 0.651 0.168s0.941 0.207 1.316 0.234l0.682 0.047 0.216-0.234c0.173-0.188 0.216-0.299 0.216-0.556 0-0.349-0.014-0.366-0.845-1.081-0.886-0.762-1.727-2.195-2.059-3.509-0.135-0.535-0.16-0.822-0.159-1.819 0.001-1.010 0.026-1.276 0.167-1.817l0.166-0.633 0.784 0.828c0.907 0.957 1.801 1.775 2.649 2.423 0.735 0.561 1.020 0.605 1.347 0.208 0.404-0.49 0.256-0.844-0.649-1.549-1.131-0.881-2.276-2.014-3.445-3.411-0.495-0.591-0.545-0.63-0.809-0.628-0.159 0.001-0.348 0.060-0.433 0.134-0.171 0.149-0.61 1.064-0.813 1.697-0.54 1.682-0.546 3.904-0.014 5.51 0.221 0.666 0.6 1.504 0.885 1.954 0.113 0.178 0.187 0.324 0.164 0.324s-0.166-0.069-0.318-0.153c-0.407-0.225-0.741-0.201-0.992 0.070-0.188 0.204-0.206 0.269-0.206 0.75 0 1.174 0.37 2.705 0.928 3.837 0.419 0.849 0.908 1.523 1.663 2.291 0.609 0.619 0.656 0.686 0.483 0.686-0.226 0-0.512 0.282-0.579 0.569-0.092 0.399 0.581 1.988 1.23 2.905 0.932 1.316 2.356 2.441 3.672 2.901 0.213 0.074 0.414 0.152 0.447 0.172 0.195 0.121-1.983 1.157-3.179 1.513-1.432 0.426-2.162 0.521-4.045 0.526-1.642 0.004-1.674 0.007-1.832 0.178-0.187 0.203-0.223 0.752-0.063 0.961 0.054 0.070 0.434 0.347 0.845 0.614 2.483 1.615 5.286 2.623 8.426 3.031 0.923 0.12 3.684 0.121 4.579 0.002 3.594-0.478 6.442-1.56 9.1-3.458 5.646-4.032 9.174-10.952 9.44-18.522l0.044-1.241 0.241-0.2c0.82-0.678 2.028-2.055 2.806-3.198 0.356-0.523 0.416-0.658 0.416-0.942 0.001-0.269-0.037-0.366-0.197-0.515-0.275-0.257-0.581-0.236-1.332 0.089-0.347 0.151-0.642 0.262-0.655 0.247s0.105-0.232 0.263-0.484c0.431-0.687 0.919-1.847 0.957-2.273 0.029-0.326 0.010-0.396-0.166-0.594-0.293-0.332-0.599-0.305-1.318 0.114-0.874 0.51-1.615 0.842-2.573 1.155l-0.865 0.282-0.332-0.303c-1.226-1.116-2.714-1.815-4.265-2.002-0.757-0.091-1.045-0.091-1.808 0.004zM10.132 7.524c-0.237 0.047-0.513 0.448-0.513 0.746 0 0.183 0.061 0.322 0.217 0.49 0.64 0.693 1.618-0.265 0.998-0.978-0.199-0.229-0.427-0.313-0.702-0.258zM25.675 18.687c-0.15 0.163-0.206 0.296-0.206 0.495 0 0.647 0.749 0.997 1.166 0.545 0.406-0.44 0.082-1.263-0.496-1.263-0.191 0-0.311 0.058-0.463 0.223zM24.307 20.818c-0.116 0.077-0.327 0.292-0.468 0.477-0.778 1.022-2.135 2.296-3.38 3.172-0.908 0.639-0.978 0.718-0.978 1.103 0 0.412 0.298 0.758 0.652 0.758 0.54 0 2.492-1.522 3.901-3.041 1.411-1.522 1.583-1.903 1.081-2.399-0.249-0.246-0.509-0.268-0.809-0.069z"></path>
</svg>
